<svg width="146" height="170" viewBox="0 0 146 170" fill="none" xmlns="http://www.w3.org/2000/svg">
<path d="M105.251 17.1606C103.865 16.5255 103.865 16.5255 102.451 15.8776C101.484 15.4409 100.517 15.0042 99.5209 14.5543C98.0804 13.8939 98.0804 13.8939 96.6108 13.2201C85.2371 8.03467 85.2371 8.03467 81.1702 9.05393C78.3376 10.5791 77.6308 13.5724 76.4299 16.3364C76.1573 16.9191 75.8846 17.5018 75.6037 18.1021C73.9111 21.9883 73.7217 24.4162 75.0474 28.952C73.3092 31.4453 71.3008 31.5808 68.0489 31.9381C65.5732 32.4456 63.7539 33.3738 61.6369 34.5246C60.9066 34.914 60.1764 35.3034 59.424 35.7046C56.2861 37.6925 54.518 39.0967 53.9089 42.7748C53.2 42.6731 52.4912 42.5713 51.7609 42.4665C48.959 46.9223 46.6782 51.4069 44.6979 56.2985C44.4084 57.0012 44.119 57.7039 43.8208 58.4279C42.874 60.7305 41.9347 63.0365 40.9958 65.3428C40.3343 66.9575 39.6725 68.572 39.0104 70.1863C37.6268 73.5626 36.2469 76.9404 34.8696 80.3195C33.111 84.6338 31.345 88.9446 29.5765 93.2544C28.21 96.5861 26.8467 99.9193 25.4845 103.253C24.8347 104.842 24.1842 106.431 23.5328 108.02C22.6201 110.247 21.7116 112.477 20.8042 114.707C20.5388 115.352 20.2734 115.998 20 116.663C18.6664 119.953 17.4051 123.273 16.2324 126.634C16.0012 127.288 15.7701 127.942 15.532 128.616C15.1372 130.795 15.5357 132.027 16.458 134.228C16.6395 135.127 16.6395 135.127 16.8247 136.044C18.2318 138.993 20.4995 140.307 23.2949 142.265C24.1872 142.903 25.0795 143.54 25.9988 144.197C30.3997 146.431 34.8468 147.697 39.6015 148.134C40.3138 147.589 41.026 147.044 41.7598 146.483C42.8912 147.163 44.0227 147.843 45.1885 148.543C44.9022 149.02 44.616 149.496 44.3211 149.987C48.589 155.479 55.6241 158.923 62.3216 160.803C63.1736 160.666 64.0255 160.53 64.9033 160.389C66.1279 160.213 66.1279 160.213 67.3772 160.034C73.9114 158.888 73.9114 158.888 75.8009 156.154C76.2166 155.257 76.6323 154.36 77.0606 153.436C77.2951 152.936 77.5297 152.436 77.7713 151.921C80.8941 145.166 83.698 138.252 86.5125 131.35C87.1151 129.88 87.718 128.41 88.321 126.94C89.5742 123.882 90.8244 120.824 92.0725 117.764C93.6669 113.855 95.2691 109.95 96.8735 106.046C98.1159 103.021 99.3541 99.9936 100.591 96.9657C101.18 95.525 101.771 94.0848 102.363 92.6453C103.189 90.634 104.009 88.6202 104.828 86.6057C105.07 86.0213 105.311 85.4369 105.56 84.8348C107.637 79.6954 109.064 74.3846 110.066 68.8429C110.189 68.201 110.311 67.5591 110.438 66.8978C110.556 64.791 110.119 63.3902 109.273 61.3052C108.109 58.0454 107.063 54.8502 106.314 51.5457C105.602 48.7282 104.68 46.6419 103.344 43.9896C103.564 42.6628 103.564 42.6628 103.788 41.3092C104.78 41.5809 105.772 41.8526 106.793 42.1326C109.233 36.7907 111.673 31.4488 114.187 25.945C113.481 25.1969 112.776 24.4488 112.049 23.6781C112.052 23.0317 112.055 22.3854 112.059 21.7195C109.737 19.2568 108.326 18.5628 105.251 17.1606Z" fill="#272426"/>
<path d="M103.614 74.6053C103.043 74.3832 102.473 74.1611 101.885 73.9322C96.7769 71.9397 91.6789 69.9146 86.5862 67.8738C84.7652 67.1463 84.7652 67.1463 82.9075 66.4041C75.6003 63.383 68.6602 59.7015 61.713 55.8756C60.9114 55.4364 60.1098 54.9972 59.2839 54.5447C57.3329 53.4753 55.383 52.4036 53.4337 51.3308C48.9783 59.8294 45.1006 68.5102 41.4997 77.4342C40.9672 78.7444 40.4343 80.0545 39.9011 81.3645C38.7953 84.0843 37.6929 86.8058 36.5931 89.5284C35.1905 93.0003 33.7801 96.4687 32.3673 99.9359C31.2701 102.631 30.1765 105.327 29.0841 108.024C28.5655 109.303 28.0458 110.582 27.5251 111.861C22.013 125.408 22.0131 125.408 20.7739 130.927C21.4078 131.794 21.4078 131.794 22.0545 132.679C26.9016 123.428 31.3096 114 35.5297 104.427C35.2434 105.247 34.9571 106.066 34.6621 106.91C33.5985 109.954 32.5366 113 31.4752 116.046C31.016 117.363 30.5562 118.68 30.096 119.996C29.4339 121.891 28.7735 123.786 28.1134 125.682C27.9079 126.269 27.7024 126.855 27.4906 127.46C26.5745 130.096 25.6854 132.719 25.0495 135.46C36.0023 139.807 48.7991 138.219 58.6489 134.908C67.9917 130.234 71.7222 117.486 75.2223 108.63C76.1085 106.431 77.0031 104.236 77.9 102.042C78.127 101.486 78.3539 100.929 78.5877 100.356C81.173 94.0611 83.9776 87.876 86.8096 81.6999C87.0517 81.1714 87.2939 80.6429 87.5433 80.0984C88.8876 77.1667 90.2375 74.238 91.593 71.312C94.7079 72.5353 97.8228 73.7585 101.032 75.0188C100.618 75.7831 100.204 76.5473 99.7778 77.3347C95.1231 86.0732 91.213 95.0843 87.4918 104.289C86.4987 106.746 85.498 109.198 84.4954 111.65C82.1381 117.419 79.7937 123.194 77.4516 128.969C76.3861 131.594 75.3147 134.215 74.2421 136.836C73.9637 137.532 73.6852 138.228 73.3984 138.945C70.463 147.269 70.463 147.269 63.9496 152.51C59.8175 152.414 57.8287 151.488 54.2136 149.055C53.3701 147.575 53.3701 147.575 52.5095 146.066C48.2714 142.815 44.5038 140.558 39.321 139.983C37.7776 140.089 37.7776 140.089 36.2029 140.197C32.9356 139.929 30.5939 139.113 27.5643 137.585C26.8468 137.228 26.1293 136.87 25.39 136.502C24.5825 136.089 24.5825 136.089 23.7587 135.667C25.8842 139.395 27.4961 140.247 31.4629 142.261C34.6959 142.92 37.5093 143.192 40.7018 143.146C44.6612 143.784 46.98 145.698 49.9176 148.438C50.3223 149.046 50.727 149.654 51.144 150.28C53.3732 153.055 56.4497 154.247 59.7699 155.34C63.8433 155.763 66.1106 155.745 69.6631 154.408C74.9559 147.869 77.7288 139.357 80.8879 131.616C81.4486 130.256 82.0098 128.896 82.5716 127.536C83.7413 124.7 84.9065 121.863 86.0681 119.023C87.548 115.406 89.0362 111.793 90.5274 108.181C91.6845 105.378 92.8385 102.573 93.9916 99.7674C94.5391 98.4355 95.0871 97.1039 95.6357 95.7726C98.5067 88.7978 101.31 81.8278 103.614 74.6053Z" fill="white"/>
<path d="M101.032 75.0182C97.917 73.7949 94.8021 72.5717 91.5928 71.3114C85.8406 82.169 80.7401 93.2596 76.002 104.631C69.793 123.06 69.793 123.06 55.5758 135.137C47.7449 137.108 40.5125 137.775 31.9399 136.438C29.3898 136.083 27.1071 136.055 24.6156 136.182C30.216 139.882 33.2065 140.898 39.6132 140.588C44.3016 141.413 48.1994 143.894 52.0756 146.787C52.9192 148.266 52.9192 148.266 53.7798 149.776C56.997 152.236 58.6321 152.838 62.5753 153.219C65.8005 153.069 65.8005 153.069 67.5251 152.14C71.6331 146.612 74.0658 140.062 76.6766 133.717C77.1294 132.628 77.5827 131.539 78.0365 130.451C79.2266 127.592 80.41 124.731 81.592 121.868C82.7689 119.022 83.952 116.178 85.1346 113.334C87.1856 108.399 89.2316 103.462 91.275 98.5236C93.4432 93.2842 95.6178 88.0477 97.7936 82.8118C98.1255 82.0129 98.4574 81.214 98.7994 80.3909C99.5435 78.6 100.288 76.8091 101.032 75.0182Z" fill="#A0E9FF"/>
<path d="M84.0426 35.3392C79.5448 33.4949 76.5265 34.5858 72.5622 35.9701C65.537 38.8028 60.2945 42.2498 55.6028 47.7221C56.6797 48.1197 57.7567 48.5173 58.8663 48.927C70.422 53.2455 81.6707 58.0972 92.9253 63.2711C94.0056 58.5387 94.9951 54.1113 94.4774 49.0383C94.3634 47.7864 94.3634 47.7864 94.2471 46.5092C93.233 40.0486 90.3361 38.5315 84.0426 35.3392Z" fill="#FBFBFB"/>
<path d="M96.8995 43.0645C96.1907 42.9627 95.4818 42.861 94.7515 42.7562C95.031 43.5725 95.3105 44.3888 95.5985 45.2298C95.026 46.1826 94.4535 47.1353 93.8637 48.117C93.6042 50.536 93.6042 50.536 93.5412 53.2649C93.4507 56.6354 93.2875 59.9527 92.9248 63.2708C92.1955 62.8911 92.1955 62.8911 91.4515 62.5036C80.3669 56.7683 69.5031 51.8924 57.7502 48.0301C57.1778 48.9828 56.6053 49.9356 56.0155 50.9172C64.1903 56.4119 72.6582 60.5081 81.6329 64.4678C82.7031 64.9402 83.7732 65.4125 84.8757 65.8992C90.3721 68.2906 95.8153 70.4902 101.476 72.3384C103.654 70.5993 104.474 69.6707 104.662 66.8083C102.525 49.4055 102.525 49.4055 96.8995 43.0645Z" fill="#101010"/>
<path d="M103.614 74.6053C100.499 73.3821 97.384 72.1588 94.1747 70.8985C94.1713 71.5449 94.168 72.1912 94.1645 72.8571C96.4308 73.5705 98.6971 74.2839 101.032 75.0188C100.618 75.7831 100.204 76.5473 99.7778 77.3347C95.1231 86.0732 91.213 95.0843 87.4918 104.289C86.4987 106.746 85.498 109.198 84.4954 111.65C82.1381 117.419 79.7937 123.194 77.4516 128.969C76.3861 131.594 75.3147 134.215 74.2421 136.836C73.9637 137.532 73.6852 138.228 73.3984 138.945C70.463 147.269 70.463 147.269 63.9496 152.51C59.8175 152.414 57.8287 151.488 54.2136 149.055C53.3701 147.575 53.3701 147.575 52.5095 146.066C48.2714 142.815 44.5038 140.558 39.321 139.983C37.7776 140.089 37.7776 140.089 36.2029 140.197C32.9356 139.929 30.5939 139.113 27.5643 137.585C26.8468 137.228 26.1293 136.87 25.39 136.502C24.5825 136.089 24.5825 136.089 23.7587 135.667C25.8842 139.395 27.4961 140.247 31.4629 142.261C34.6959 142.92 37.5093 143.192 40.7018 143.146C44.6612 143.784 46.98 145.698 49.9176 148.438C50.3223 149.046 50.727 149.654 51.144 150.28C53.3732 153.055 56.4497 154.247 59.7699 155.34C63.8433 155.763 66.1106 155.745 69.6631 154.408C74.9559 147.869 77.7288 139.357 80.8879 131.616C81.4486 130.256 82.0098 128.896 82.5716 127.536C83.7413 124.7 84.9065 121.863 86.0681 119.023C87.548 115.406 89.0362 111.793 90.5274 108.181C91.6845 105.378 92.8385 102.573 93.9916 99.7674C94.5391 98.4355 95.0871 97.1039 95.6357 95.7726C98.5082 88.794 101.27 81.8159 103.614 74.6053Z" fill="#EEEEEE"/>
<path d="M87.5935 13.8961C84.7919 13.9626 84.7919 13.9626 82.4301 14.7231C81.2595 16.3375 81.2595 16.3375 80.5844 18.2803C80.3482 18.9236 80.1121 19.5669 79.8688 20.2296C79.7088 20.7261 79.5489 21.2226 79.384 21.7342C79.9498 22.0741 80.5155 22.4141 81.0984 22.7643C82.2399 21.5051 83.3815 20.2459 84.5577 18.9486C84.125 20.3095 83.6922 21.6704 83.2464 23.0726C83.8121 23.4125 84.3779 23.7524 84.9607 24.1027C87.9411 19.3852 87.9411 19.3852 88.4405 16.3698C89.0062 16.7097 89.572 17.0496 90.1548 17.3998C89.0065 19.9517 87.8582 22.5035 86.6751 25.1327C87.5237 25.6426 88.3723 26.1525 89.2466 26.6778C90.538 23.8878 91.8294 21.0977 93.16 18.2232C93.7257 18.5631 94.2915 18.903 94.8744 19.2532C93.726 21.8051 92.5777 24.3569 91.3946 26.9861C91.9603 27.3261 92.5261 27.666 93.1089 28.0162C94.2572 25.4644 95.4056 22.9125 96.5887 20.2833C97.1544 20.6232 97.7201 20.9632 98.303 21.3134C97.1547 23.8652 96.0064 26.4171 94.8233 29.0463C95.389 29.3862 95.9547 29.7261 96.5376 30.0764C98.1119 27.4563 99.6862 24.8362 101.308 22.1367C101.874 22.4766 102.44 22.8166 103.023 23.1668C101.591 25.5487 100.16 27.9306 98.6856 30.3847C99.5342 30.8945 100.383 31.4044 101.257 31.9298C102.119 30.4328 102.98 28.9358 103.842 27.4388C104.558 26.0371 104.558 26.0371 106.018 25.9487C105.012 28.2624 104.007 30.5761 102.971 32.9598C103.537 33.2998 104.103 33.6397 104.686 33.9899C105.375 32.6227 106.052 31.2488 106.723 29.8721C107.101 29.1077 107.479 28.3433 107.868 27.5558C108.109 26.889 108.351 26.2222 108.599 25.5352C104.51 19.9416 94.0655 15.7925 87.5935 13.8961Z" fill="black"/>
<path d="M101.052 71.1023C86.9736 62.1771 72.5155 54.2099 56.4491 50.1962C56.306 50.4343 56.1629 50.6725 56.0154 50.9179C64.2061 56.4232 72.6961 60.5291 81.6865 64.5007C82.7638 64.9774 83.8411 65.454 84.951 65.9452C90.1476 68.2085 95.2184 70.296 100.619 71.8241C100.762 71.5859 100.905 71.3477 101.052 71.1023Z" fill="#EDEDED"/>
<path d="M94.874 19.2531C94.3082 18.9132 93.7425 18.5732 93.1596 18.223C91.8682 21.0131 90.5767 23.8031 89.2462 26.6777C88.3976 26.1678 87.549 25.6579 86.6747 25.1326C87.2469 24.2202 87.8192 23.3079 88.4088 22.3679C90.1429 19.6031 90.1429 19.6031 90.1544 17.3997C89.5887 17.0598 89.023 16.7198 88.4401 16.3696C87.2918 18.9215 86.1434 21.4733 84.9603 24.1025C84.3946 23.7626 83.8289 23.4227 83.246 23.0724C84.2512 20.7588 85.2564 18.4451 86.2921 16.0613C86.0092 15.8914 85.7263 15.7214 85.4349 15.5463C84.0037 17.9282 82.5725 20.3101 81.098 22.7642C81.6637 23.1041 82.2294 23.444 82.8123 23.7942C82.5261 24.2706 82.2398 24.747 81.9449 25.2378C80.9532 24.9661 79.9615 24.6944 78.9397 24.4145C79.0795 24.8226 79.2192 25.2308 79.3632 25.6513C86.9151 29.9942 95.0138 33.3948 102.951 36.8769C103.237 36.4005 103.523 35.9242 103.818 35.4334C97.6632 32.2214 97.6632 32.2214 91.384 28.9446C92.5357 25.7464 93.6874 22.5482 94.874 19.2531Z" fill="#616161"/>
<path d="M37.6988 100.819C37.4159 100.649 37.1331 100.479 36.8416 100.304C32.7114 107.99 28.9839 115.857 25.46 123.858C24.8547 125.197 24.8547 125.197 24.2372 126.563C23.8719 127.405 23.5065 128.247 23.1301 129.115C22.798 129.869 22.4659 130.623 22.1237 131.4C21.6215 133.401 21.6215 133.401 23.3256 136.39C23.7516 136.321 24.1776 136.253 24.6165 136.183C26.9603 131.82 28.5166 126.981 30.1555 122.285C30.3739 121.666 30.5924 121.046 30.8174 120.408C31.5043 118.459 32.1878 116.508 32.8711 114.557C33.3405 113.223 33.8101 111.889 34.28 110.555C35.4222 107.311 36.5614 104.065 37.6988 100.819Z" fill="#181818"/>
<path d="M96.9004 43.064C96.1915 42.9623 95.4827 42.8606 94.7523 42.7557C95.0644 43.5979 95.3764 44.4402 95.698 45.3079C98.5182 53.1107 100.419 60.4628 101.497 68.4208C102.489 68.6925 103.481 68.9642 104.502 69.2441C103.303 50.2809 103.303 50.2809 96.9004 43.064Z" fill="#EDEDED"/>
<path d="M102.952 21.0988C102.168 20.6366 101.384 20.1744 100.577 19.6982C99.9727 19.3467 99.3688 18.9953 98.7466 18.6331C99.4521 19.3812 100.158 20.1293 100.884 20.9C100.169 22.091 99.4532 23.2819 98.7159 24.509C99.5713 23.7262 100.427 22.9434 101.308 22.1369C101.874 22.4768 102.439 22.8167 103.022 23.1669C101.591 25.5488 100.16 27.9307 98.6853 30.3848C99.5339 30.8947 100.382 31.4046 101.257 31.9299C102.118 30.4329 102.98 28.9359 103.841 27.4389C104.558 26.0372 104.558 26.0372 106.017 25.9489C105.012 28.2625 104.007 30.5762 102.971 32.96C103.537 33.2999 104.103 33.6398 104.685 33.9901C105.375 32.6228 106.051 31.2489 106.722 29.8722C107.1 29.1078 107.478 28.3435 107.868 27.5559C108.109 26.8891 108.35 26.2224 108.599 25.5354C106.982 23.3239 105.379 22.5216 102.952 21.0988Z" fill="black"/>
<path d="M103.614 74.6055C100.499 73.3823 97.3838 72.159 94.1745 70.8987C94.1711 71.5451 94.1677 72.1914 94.1643 72.8573C96.4306 73.5707 98.6969 74.2841 101.032 75.019C98.7386 79.4764 96.4453 83.9338 94.0825 88.5262C97.9551 87.906 97.9551 87.906 99.2381 85.983C99.5848 85.1758 99.9315 84.3685 100.289 83.5367C100.642 82.7385 100.995 81.9402 101.359 81.1178C102.201 78.986 102.916 76.7982 103.614 74.6055Z" fill="#DBDBDB"/>
<path d="M103.023 23.1668C102.457 22.8268 101.891 22.4869 101.308 22.1367C99.7341 24.7568 98.1598 27.3768 96.5378 30.0763C95.972 29.7364 95.4063 29.3965 94.8234 29.0463C95.9718 26.4944 97.1201 23.9425 98.3032 21.3134C97.7375 20.9734 97.1717 20.6335 96.5889 20.2833C95.4405 22.8351 94.2922 25.387 93.1091 28.0162C92.4003 27.9144 91.6914 27.8127 90.9611 27.7079C90.6748 28.1843 90.3886 28.6606 90.0937 29.1515C93.0655 30.6129 96.0372 32.0743 99.0991 33.5801C98.9627 32.5256 98.8263 31.4711 98.6858 30.3846C99.5699 28.4443 99.5699 28.4443 100.828 26.576C101.235 25.9349 101.641 25.2938 102.059 24.6333C102.377 24.1494 102.695 23.6654 103.023 23.1668Z" fill="#616161"/>
<path d="M89.8887 68.3237C83.3623 64.0905 76.3661 61.0644 69.3064 57.9214C68.5942 58.466 67.882 59.0106 67.1482 59.5717C70.0502 61.0125 72.9542 62.4489 75.8586 63.8845C76.6781 64.2914 77.4976 64.6983 78.3419 65.1175C79.1393 65.5112 79.9366 65.9048 80.7582 66.3104C81.488 66.6717 82.2179 67.0331 82.9698 67.4054C85.2482 68.4706 87.5386 69.3908 89.8785 70.2823C89.8818 69.636 89.8852 68.9896 89.8887 68.3237Z" fill="#191919"/>
<path d="M75.771 54.9291C69.8241 52.6525 63.8772 50.376 57.7501 48.0305C57.9546 49.6122 57.9546 49.6122 58.1633 51.2259C59.2911 51.6015 59.2911 51.6015 60.4417 51.9847C66.1533 53.9194 71.5949 55.9393 77.0415 58.6395C76.336 57.8915 75.6305 57.1434 74.9036 56.3726C75.1899 55.8963 75.4761 55.4199 75.771 54.9291Z" fill="#1C1C1C"/>
<path d="M40.3399 140.473C37.4942 139.991 37.4942 139.991 34.8879 139.96C30.7566 139.435 27.5149 137.661 23.7591 135.668C25.8846 139.395 27.4965 140.247 31.4633 142.262C35.846 143.224 39.6658 143.224 43.928 142.874C42.6474 141.123 42.6474 141.123 40.3399 140.473Z" fill="#E5E5E5"/>
<path d="M37.698 100.818C37.4152 100.648 37.1323 100.478 36.8409 100.303C35.8064 102.302 34.7754 104.302 33.7463 106.303C33.313 107.139 33.313 107.139 32.871 107.991C30.9627 111.711 29.2754 115.487 27.7129 119.378C28.4184 120.126 29.1238 120.874 29.8507 121.645C33.142 114.976 35.4118 107.933 37.698 100.818Z" fill="#212121"/>
<path d="M91.7773 36.0576C90.5569 35.2977 89.3331 34.5433 88.1078 33.7913C87.0861 33.1603 87.0861 33.1603 86.0438 32.5166C84.0627 31.4222 84.0627 31.4222 81.0576 30.5989C80.7713 31.0753 80.4851 31.5516 80.1902 32.0425C81.0388 32.5523 81.8874 33.0622 82.7617 33.5876C82.4754 34.0639 82.1892 34.5403 81.8943 35.0311C85.1489 36.6625 88.4036 38.2939 91.7568 39.9748C91.7636 38.6821 91.7703 37.3894 91.7773 36.0576Z" fill="#737373"/>
<path d="M97.5321 86.6687C97.2492 86.4987 96.9663 86.3288 96.6749 86.1537C95.965 87.2824 95.2617 88.4153 94.5613 89.55C94.169 90.1804 93.7766 90.8108 93.3724 91.4604C92.4255 93.2098 91.8648 94.8014 91.4604 96.7737C92.0261 97.1136 92.5918 97.4536 93.1747 97.8038C93.9078 96.6892 94.6277 95.5662 95.3419 94.4397C95.7442 93.8152 96.1465 93.1908 96.5609 92.5474C97.5535 90.4995 97.7046 89.0328 97.5321 86.6687Z" fill="#F2F2F2"/>
<path d="M94.8994 96.8752C94.3303 97.1816 93.7612 97.488 93.1749 97.8037C92.6091 97.4638 92.0434 97.1238 91.4605 96.7736C90.3122 99.3255 89.1639 101.877 87.9808 104.507C88.8294 105.016 89.678 105.526 90.5523 106.052C91.9868 103.023 93.4214 99.9952 94.8994 96.8752Z" fill="#E4E4E4"/>
<path d="M100.884 20.8997C98.9722 20.2372 98.9722 20.2372 97.0217 19.5613C97.5874 19.9013 98.1532 20.2412 98.736 20.5914C97.4446 23.3815 96.1531 26.1715 94.8226 29.0461C95.3883 29.386 95.954 29.7259 96.5369 30.0762C98.4116 27.1146 99.9686 24.3309 100.884 20.8997Z" fill="black"/>
<path d="M100.619 71.8244C98.77 70.9621 96.8976 70.1553 95.016 69.3786C93.9846 68.9501 92.9533 68.5217 91.8907 68.0802C90.6903 67.5888 90.6903 67.5888 89.4658 67.0875C89.4624 67.7338 89.459 68.3802 89.4555 69.0461C90.7382 69.7042 92.0255 70.3525 93.3147 70.9965C94.0311 71.3586 94.7474 71.7206 95.4855 72.0936C97.6037 72.9597 97.6037 72.9597 101.043 73.0612C100.903 72.653 100.763 72.2449 100.619 71.8244Z" fill="#0F0F0F"/>
<path d="M91.8694 18.4294C91.5865 18.2595 91.3037 18.0895 91.0122 17.9144C89.5811 20.2963 88.1499 22.6782 86.6753 25.1323C87.5239 25.6422 88.3725 26.1521 89.2468 26.6774C89.7681 25.537 90.2835 24.3937 90.7963 23.2491C91.0839 22.6128 91.3716 21.9764 91.6679 21.3207C92.2929 19.6663 92.2929 19.6663 91.8694 18.4294Z" fill="black"/>
<path d="M89.8897 68.3234C87.6267 66.9637 85.3638 65.604 83.0323 64.2031C82.603 64.9177 82.1736 65.6322 81.7312 66.3684C84.4202 67.6599 87.1091 68.9514 89.8794 70.282C89.8828 69.6357 89.8862 68.9893 89.8897 68.3234Z" fill="#2B2B2B"/>
</svg>
