<svg width="120" height="108" viewBox="0 0 120 108" fill="none" xmlns="http://www.w3.org/2000/svg">
<path d="M52.816 57.7216C53.0912 57.7204 53.0912 57.7204 53.3718 57.7192C53.8724 57.7173 54.373 57.7161 54.8736 57.7154C55.1878 57.7149 55.5021 57.7143 55.8163 57.7135C56.8037 57.7114 57.7912 57.7098 58.7786 57.7092C59.9104 57.7085 61.0421 57.7058 62.1738 57.7011C63.0537 57.6977 63.9335 57.6961 64.8133 57.6959C65.3364 57.6957 65.8594 57.6949 66.3824 57.692C69.1753 57.6775 71.8842 57.7472 74.5676 58.6586C74.6905 58.6993 74.8133 58.74 74.9399 58.7819C77.8172 59.763 80.2481 61.2991 82.5991 63.2954C82.7155 63.3824 82.8319 63.4695 82.9518 63.5591C83.0324 63.629 83.113 63.6989 83.1961 63.7709C83.1961 63.8755 83.1961 63.9802 83.1961 64.088C83.2777 64.1221 83.3593 64.1562 83.4433 64.1914C85.7984 65.6297 87.5052 69.152 88.5691 71.697C88.6308 71.8421 88.6308 71.8421 88.6936 71.9901C89.1844 73.1605 89.5601 74.3462 89.875 75.5808C89.9047 75.6953 89.9344 75.8098 89.9649 75.9277C90.4258 77.8334 90.5541 79.7535 90.5432 81.7135C90.5432 81.9263 90.5432 82.139 90.5434 82.3518C90.5435 82.9209 90.5417 83.4899 90.5396 84.059C90.5377 84.6569 90.5376 85.2548 90.5372 85.8526C90.5363 86.981 90.5339 88.1094 90.5309 89.2378C90.5275 90.524 90.5259 91.8102 90.5244 93.0964C90.5213 95.7388 90.516 98.3811 90.5094 101.023C90.0556 101.254 89.6016 101.484 89.1475 101.713C89.0198 101.778 88.892 101.843 88.7604 101.91C87.8605 102.364 86.9597 102.771 86.0132 103.104C85.8719 103.155 85.7306 103.206 85.585 103.258C81.1454 104.828 76.6349 105.787 72.0024 106.413C71.8081 106.44 71.6139 106.466 71.4137 106.494C65.2603 107.299 58.9039 107.129 52.7491 106.413C52.6343 106.4 52.5195 106.387 52.4012 106.374C45.7959 105.617 39.3054 104.087 32.9455 102.064C32.8373 102.03 32.7291 101.995 32.6177 101.96C32.3155 101.864 32.0139 101.767 31.7124 101.668C31.5411 101.612 31.3697 101.557 31.1932 101.499C30.8094 101.341 30.8094 101.341 30.6601 101.023C30.6453 100.752 30.64 100.479 30.6392 100.207C30.6383 100.034 30.6375 99.8613 30.6366 99.683C30.6364 99.4922 30.6362 99.3015 30.6361 99.1049C30.6353 98.9046 30.6346 98.7042 30.6338 98.4978C30.6319 97.9464 30.6309 97.395 30.6302 96.8436C30.6298 96.4978 30.6292 96.152 30.6285 95.8062C30.6265 94.7207 30.625 93.6351 30.6245 92.5496C30.6238 91.3038 30.6212 90.058 30.6168 88.8121C30.6136 87.8456 30.6121 86.8791 30.6119 85.9126C30.6118 85.3373 30.6109 84.7621 30.6082 84.1869C30.5943 81.0567 30.6419 77.9371 31.509 74.917C31.566 74.7132 31.566 74.7132 31.6243 74.5054C33.4149 68.3494 37.4475 63.474 42.7208 60.39C45.8664 58.6397 49.2703 57.7252 52.816 57.7216Z" fill="#A0E9FF"/>
<path d="M21.8882 38.5288C22.0749 38.5288 22.2615 38.5288 22.4537 38.5287C22.9587 38.5289 23.4637 38.5305 23.9687 38.5327C24.4989 38.5347 25.0292 38.5349 25.5594 38.5352C26.5605 38.5362 27.5615 38.5388 28.5626 38.542C29.7036 38.5456 30.8445 38.5473 31.9855 38.5489C34.3298 38.5522 36.674 38.5577 39.0183 38.5648C39.0341 38.6855 39.05 38.8062 39.0663 38.9305C39.1398 39.4864 39.2149 40.0421 39.29 40.5977C39.3148 40.7875 39.3397 40.9773 39.3654 41.1728C40.024 46.0081 42.0331 50.2061 45.1603 53.7736C45.436 54.0999 45.436 54.0999 45.7345 54.5755C45.6597 54.6066 45.5849 54.6376 45.5077 54.6696C45.0849 54.8471 44.6635 55.0284 44.242 55.2096C44.1396 55.253 44.0371 55.2964 43.9315 55.3411C41.0161 56.5801 38.255 58.1041 35.9517 60.4123C35.7348 60.5993 35.7348 60.5993 35.4363 60.5993C35.4363 60.7039 35.4363 60.8086 35.4363 60.9164C35.2328 61.1232 35.2328 61.1232 34.9419 61.3721C30.1207 65.7639 27.3741 72.6745 26.8141 79.2932C26.7588 80.0783 26.7448 80.8629 26.7326 81.6499C26.7295 81.8198 26.7264 81.9897 26.7232 82.1648C26.7135 82.7009 26.7047 83.2371 26.6958 83.7732C26.6894 84.1395 26.6829 84.5057 26.6763 84.872C26.6604 85.764 26.6452 86.656 26.6305 87.548C17.9396 87.003 9.59965 85.1399 1.26173 82.5326C1.08789 82.4783 1.08789 82.4783 0.910536 82.4229C0.628369 82.3347 0.346209 82.2465 0.0640498 82.1582C0.0500356 79.2367 0.0395436 76.3152 0.0331186 73.3937C0.0300545 72.0368 0.0258849 70.68 0.0190125 69.3231C0.0130178 68.139 0.0091995 66.9548 0.00787843 65.7707C0.00710753 65.1451 0.0053261 64.5195 0.000927882 63.8938C-0.0477815 56.6779 1.81692 50.5739 6.62172 45.3218C9.37022 42.3966 12.7141 40.4714 16.4256 39.3178C16.5501 39.2788 16.6746 39.2397 16.8028 39.1995C18.4853 38.6967 20.1445 38.5173 21.8882 38.5288Z" fill="#3292AF"/>
<path d="M82.9584 38.5439C83.1717 38.5426 83.1717 38.5426 83.3893 38.5412C83.5467 38.541 83.7041 38.5408 83.8662 38.5406C84.031 38.5398 84.1958 38.5391 84.3656 38.5382C84.9147 38.5359 85.4638 38.5348 86.0128 38.534C86.3947 38.5331 86.7766 38.5321 87.1584 38.5312C87.8591 38.5298 88.5598 38.5288 89.2604 38.5283C90.2861 38.5276 91.3117 38.5248 92.3374 38.5202C93.229 38.5163 94.1206 38.5152 95.0123 38.5149C95.3893 38.5144 95.7663 38.5131 96.1432 38.511C98.1971 38.5005 100.144 38.5454 102.15 39.0417C102.294 39.0767 102.438 39.1116 102.586 39.1476C106.6 40.1662 110.158 42.4482 113.046 45.5411C113.118 45.6187 113.191 45.6964 113.266 45.7763C116.133 48.8773 118.134 52.8753 119.016 57.1132C119.055 57.2991 119.095 57.485 119.136 57.6765C119.577 59.969 119.537 62.2913 119.538 64.6204C119.539 64.9767 119.54 65.333 119.541 65.6894C119.545 66.9348 119.547 68.1802 119.546 69.4257C119.546 70.584 119.551 71.7421 119.558 72.9004C119.564 73.8995 119.566 74.8986 119.566 75.8977C119.566 76.4926 119.567 77.0874 119.572 77.6822C119.577 78.3428 119.575 79.0031 119.572 79.6637C119.576 79.9582 119.576 79.9582 119.58 80.2586C119.575 80.7526 119.564 81.2017 119.463 81.684C119.028 82.117 119.028 82.117 118.568 82.3181C118.47 82.3728 118.371 82.4275 118.27 82.4839C112.307 85.229 106.086 86.5754 99.6599 87.3611C99.5052 87.3807 99.3505 87.4004 99.1912 87.4207C97.6431 87.595 96.0934 87.5674 94.5387 87.5493C94.5379 87.4511 94.537 87.3529 94.5361 87.2517C94.5264 86.2124 94.5138 85.1731 94.4996 84.1339C94.4947 83.7481 94.4905 83.3623 94.487 82.9764C94.4211 75.7442 92.6512 68.3659 87.8283 62.968C87.6274 62.7601 87.4264 62.5522 87.2255 62.3444C87.2255 62.2398 87.2255 62.1351 87.2255 62.0274C87.1002 61.9734 87.1002 61.9734 86.9725 61.9184C86.5312 61.6514 86.2476 61.3117 85.9009 60.9177C83.4968 58.2918 80.2567 56.5198 77.0765 55.2109C76.7686 55.0791 76.4607 54.947 76.153 54.8146C75.9634 54.7351 75.7738 54.6556 75.584 54.5768C76.06 53.8671 76.5598 53.2096 77.1231 52.5755C80.1996 48.979 81.7063 44.0596 82.0921 39.3043C82.1742 38.4964 82.2554 38.5466 82.9584 38.5439Z" fill="#3292AF"/>
<path d="M71.7896 23.3966C75.6521 26.9178 77.8482 31.4784 78.2464 36.8696C78.5249 41.8545 76.8901 46.5566 73.8668 50.3408C70.5624 54.1636 66.2553 56.2413 61.4051 56.6371C56.4436 56.8541 51.9408 54.8283 48.3031 51.3223C45.1077 48.0715 43.1499 43.4326 43.017 38.7248C42.9422 33.238 44.6531 28.4311 48.2711 24.4572C54.556 17.8821 65.0237 17.4334 71.7896 23.3966Z" fill="#A0E9FF"/>
<path d="M38.7543 2.58106C38.9754 2.71041 38.9754 2.71041 39.2009 2.84237C42.9024 5.17842 45.6874 9.37201 46.7952 13.7568C47.0767 14.9443 47.2706 16.1361 47.3613 17.357C47.3965 17.94 47.3965 17.94 47.5117 18.4295C47.595 18.9516 47.594 19.2034 47.4108 19.7014C46.801 20.495 46.0445 21.1449 45.3142 21.8086C42.6764 24.2579 40.3576 28.333 39.7961 32.027C39.4189 34.4969 39.4189 34.4969 38.7683 35.0662C38.2042 35.4434 37.5942 35.6546 36.9633 35.8706C36.7011 35.972 36.4391 36.0742 36.1774 36.1771C34.0547 36.9853 32.1284 37.3634 29.8646 37.3567C29.7593 37.3567 29.6539 37.3566 29.5454 37.3566C27.871 37.3513 26.3268 37.2025 24.7248 36.6632C24.548 36.6076 24.3712 36.552 24.189 36.4948C20.3934 35.1887 17.2929 32.5046 15.0236 29.0541C14.9439 28.9346 14.8643 28.8151 14.7822 28.6919C12.3539 24.7395 11.6227 19.4451 12.4817 14.8615C13.154 11.6252 14.5085 8.90264 16.5161 6.38558C16.608 6.26379 16.7 6.142 16.7947 6.01652C19.4234 2.62348 23.7914 0.550596 27.8442 0.0713051C31.7608 -0.261006 35.329 0.566983 38.7543 2.58106Z" fill="#3292AF"/>
<path d="M100.815 4.25548C104.89 8.0738 106.864 12.7288 107.257 18.4314C107.417 23.4422 105.447 27.9834 102.402 31.6933C99.4038 35.0242 95.1249 37.1972 90.786 37.3413C87.9573 37.3964 85.5529 37.059 82.8967 36.0291C82.768 35.9894 82.6394 35.9496 82.5068 35.9087C82.1505 35.7121 82.1505 35.7121 82.0067 35.357C81.9832 35.2114 81.9596 35.0658 81.9353 34.9158C81.9072 34.7549 81.879 34.594 81.85 34.4282C81.823 34.2568 81.7959 34.0855 81.768 33.9089C81.7058 33.5587 81.6428 33.2086 81.5791 32.8587C81.5492 32.692 81.5193 32.5252 81.4885 32.3534C81.334 31.5358 81.1037 30.776 80.8072 30.0053C80.7667 29.8996 80.7261 29.794 80.6843 29.6851C79.2288 25.941 77.1214 22.6768 74.091 20.177C73.9667 20.0717 73.8424 19.9665 73.7144 19.8581C73.0443 19.287 73.0443 19.287 72.2906 18.8593C72.0015 18.5918 72.0015 18.5918 71.9414 18.3119C71.7701 14.0327 73.664 9.75238 76.1805 6.54413C76.2464 6.45552 76.3123 6.36691 76.3802 6.27562C76.5557 6.04227 76.7406 5.81691 76.9267 5.593C77.0252 5.593 77.1237 5.593 77.2252 5.593C77.2745 5.43607 77.3237 5.27913 77.3745 5.11744C83.6651 -1.34346 94.1347 -1.69644 100.815 4.25548Z" fill="#3292AF"/>
</svg>
