<svg width="183" height="53" viewBox="0 0 183 53" fill="none" xmlns="http://www.w3.org/2000/svg">
<path d="M40.4133 4.42614C40.4957 4.48452 40.5781 4.54289 40.663 4.60304C41.9196 5.49921 43.07 6.47041 44.179 7.54253C44.273 7.62991 44.3671 7.71728 44.464 7.8073C49.1824 12.2964 51.7917 19.1706 51.9963 25.5881C52.0703 30.3691 51.0331 35.0275 48.7237 39.2258C48.6794 39.3064 48.6351 39.3869 48.5895 39.4699C47.3349 41.7173 45.734 43.6438 43.9193 45.4586C43.8193 45.5646 43.7194 45.6705 43.6164 45.7797C42.1901 47.2689 40.5196 48.4719 38.7253 49.484C38.6351 49.5351 38.545 49.5863 38.4521 49.6391C33.5237 52.4095 27.5796 53.6242 21.9747 52.6003C21.8627 52.5801 21.7508 52.5598 21.6354 52.539C14.8565 51.2717 8.77024 47.3871 4.83453 41.693C4.37452 41.0161 3.94599 40.3236 3.53604 39.6154C3.48586 39.5291 3.43569 39.4428 3.384 39.354C1.35244 35.8145 0.142645 31.6239 0.0300974 27.5394C0.0234021 27.3708 0.0167067 27.2023 0.00980844 27.0286C-0.166572 20.711 2.04208 14.3036 6.13303 9.49028C6.24844 9.34952 6.36374 9.20867 6.47896 9.06776C10.7012 3.95818 16.9307 0.745199 23.5166 0.100527C29.4108 -0.398484 35.5609 0.947448 40.4133 4.42614ZM15.3524 6.11419C15.1422 6.22868 15.1422 6.22868 14.9278 6.34548C9.77786 9.25431 5.99493 14.2334 4.31513 19.8782C3.2297 23.8806 3.0959 27.9075 4.05544 31.9543C7.04656 32.077 9.63822 31.1439 11.8789 29.1625C12.0871 28.9705 12.2923 28.7753 12.4957 28.5782C12.5737 28.504 12.6517 28.4298 12.7322 28.3534C13.3854 27.7201 13.9384 27.0469 14.4759 26.3139C14.5597 26.2011 14.6435 26.0883 14.7299 25.972C15.2635 25.2504 15.7815 24.5188 16.2938 23.7818C16.8714 22.9518 17.4853 22.1695 18.1517 21.409C18.3387 21.1954 18.523 20.9793 18.7005 20.7578C20.3035 18.7806 22.8343 17.4475 25.3508 17.1514C26.8034 17.0383 28.252 17.0421 29.6358 17.5409C29.7644 17.5851 29.8929 17.6293 30.0254 17.6749C32.0488 18.4388 33.5691 19.8552 34.4955 21.8052C34.9196 22.8463 35.1252 23.9743 35.3492 25.0722C35.2131 25.0175 35.077 24.9628 34.9368 24.9064C34.7578 24.8345 34.5787 24.7626 34.3997 24.6908C34.31 24.6547 34.2204 24.6187 34.128 24.5815C32.94 24.1051 31.6425 23.917 30.3885 24.2855C29.5871 24.6682 29.1174 25.1263 28.7593 25.9406C28.4534 26.8347 28.4933 27.7883 28.8273 28.67C29.6911 30.2848 31.1908 30.9937 32.8435 31.5546C34.5967 32.0337 36.3802 31.9888 38.1805 31.9796C38.4632 31.9791 38.7459 31.9788 39.0286 31.9785C39.7668 31.9775 40.505 31.975 41.2431 31.9721C41.9987 31.9694 42.7543 31.9682 43.5099 31.9669C44.9882 31.9642 46.4664 31.9597 47.9446 31.9543C48.0077 31.6629 48.0706 31.3715 48.1334 31.08C48.186 30.8366 48.186 30.8366 48.2397 30.5883C49.0054 26.9255 48.6724 23.0414 47.555 19.4887C47.5243 19.3904 47.4936 19.2922 47.4619 19.191C46.6539 16.6777 45.4212 14.293 43.7894 12.2171C43.7012 12.1003 43.613 11.9834 43.5221 11.8631C40.0292 7.38629 34.7856 4.32401 29.142 3.60038C24.3053 3.0532 19.645 3.76216 15.3524 6.11419ZM20.9359 22.7349C20.8363 22.8349 20.7367 22.9348 20.6341 23.0377C19.7902 23.927 19.1139 24.9351 18.418 25.9402C16.6076 28.5461 16.6076 28.5461 15.607 29.6063C15.3692 29.8588 15.1504 30.1201 14.9303 30.3879C12.3643 33.3146 8.847 34.5768 5.09423 35.0706C6.39683 38.205 8.13712 40.8513 10.5479 43.2512C10.6679 43.3712 10.7879 43.4912 10.9116 43.6148C15.1513 47.6487 20.9881 49.6524 26.7847 49.521C32.2943 49.3065 37.4812 47.0684 41.4521 43.2512C41.513 43.1937 41.5738 43.1362 41.6365 43.0769C43.9305 40.9022 45.9252 38.0981 46.9058 35.0706C46.692 35.0695 46.692 35.0695 46.4738 35.0683C45.1197 35.0609 43.7657 35.0514 42.4117 35.04C41.7158 35.0343 41.02 35.0292 40.3241 35.0257C39.6505 35.0222 38.977 35.017 38.3034 35.0105C38.0485 35.0084 37.7936 35.0069 37.5387 35.006C35.4733 34.9987 33.3608 34.8992 31.3969 34.1942C31.3012 34.1608 31.2055 34.1275 31.107 34.0931C29.2122 33.4052 27.3723 32.1978 26.3896 30.3961C25.5706 28.5875 25.3081 26.8396 26 24.9424C26.6413 23.3295 27.6788 22.3039 29.2463 21.5663C29.5976 21.4456 29.9179 21.3701 30.2851 21.3066C29.4977 20.3481 28.1969 20.1015 27.0206 19.9792C24.5691 19.8748 22.5795 21.049 20.9359 22.7349Z" fill="black"/>
<path d="M77.6875 41.98H69.0859C68.9609 41.98 68.8984 41.9019 68.8984 41.7456L68.9922 8.76904C68.9922 8.64404 69.0547 8.58154 69.1797 8.58154H78.4141C80.2109 8.58154 81.8438 9.01904 83.3125 9.89404C84.75 10.769 85.8828 11.9331 86.7109 13.3862C87.5391 14.8237 87.9531 16.3862 87.9531 18.0737C87.9531 19.4487 87.6406 20.73 87.0156 21.9175C86.3906 23.105 85.6484 24.0659 84.7891 24.8003C85.7109 25.7222 86.4297 26.7925 86.9453 28.0112C87.4609 29.23 87.7188 30.5112 87.7188 31.855C87.7188 33.7144 87.2734 35.4097 86.3828 36.9409C85.4766 38.4722 84.2656 39.6987 82.75 40.6206C81.2344 41.5269 79.5469 41.98 77.6875 41.98ZM78.4141 14.2769H74.7578V21.8237H78.4141C79.5234 21.8237 80.4219 21.4331 81.1094 20.6519C81.7969 19.855 82.1406 18.9956 82.1406 18.0737C82.1406 17.0581 81.7734 16.1753 81.0391 15.4253C80.3047 14.6597 79.4297 14.2769 78.4141 14.2769ZM77.6875 27.6362H74.7578L74.7109 36.1206H77.6875C78.8438 36.1206 79.8359 35.6987 80.6641 34.855C81.4922 34.0112 81.9062 33.0112 81.9062 31.855C81.9062 30.6987 81.4922 29.7065 80.6641 28.8784C79.8359 28.0503 78.8438 27.6362 77.6875 27.6362ZM99.2359 41.98H93.7984C93.6422 41.98 93.5641 41.9019 93.5641 41.7456L93.6109 8.76904C93.6109 8.64404 93.6734 8.58154 93.7984 8.58154H99.1891C99.3141 8.58154 99.3766 8.64404 99.3766 8.76904L99.4234 41.7456C99.4234 41.9019 99.3609 41.98 99.2359 41.98ZM111.269 41.98H106.464C106.214 41.98 106.089 41.8706 106.089 41.6519L106.042 8.95654C106.042 8.70654 106.167 8.58154 106.417 8.58154H110.753L118.862 27.4956L118.628 8.95654C118.628 8.70654 118.769 8.58154 119.05 8.58154H123.808C123.995 8.58154 124.089 8.70654 124.089 8.95654L124.136 41.6987C124.136 41.8862 124.058 41.98 123.902 41.98H119.683L111.362 24.3081L111.714 41.605C111.714 41.855 111.566 41.98 111.269 41.98ZM139.497 42.4487C137.763 42.4487 136.2 42.019 134.809 41.1597C133.403 40.3003 132.27 39.144 131.411 37.6909C130.567 36.2378 130.145 34.6128 130.145 32.8159V17.605C130.145 15.855 130.575 14.2612 131.434 12.8237C132.278 11.3706 133.411 10.2144 134.833 9.35498C136.255 8.47998 137.809 8.04248 139.497 8.04248C141.263 8.04248 142.856 8.46436 144.278 9.30811C145.7 10.1675 146.825 11.3159 147.653 12.7534C148.497 14.1909 148.919 15.8081 148.919 17.605V19.8081C148.919 19.9331 148.841 19.9956 148.684 19.9956H143.294C143.169 19.9956 143.106 19.9331 143.106 19.8081V17.98C143.106 16.7612 142.763 15.7534 142.075 14.9565C141.388 14.1597 140.528 13.7612 139.497 13.7612C138.575 13.7612 137.755 14.144 137.036 14.9097C136.317 15.6753 135.958 16.5737 135.958 17.605V32.8159C135.958 33.8628 136.309 34.769 137.013 35.5347C137.716 36.2847 138.544 36.6597 139.497 36.6597C140.528 36.6597 141.388 36.2925 142.075 35.5581C142.763 34.8081 143.106 33.894 143.106 32.8159V30.4487H139.755C139.583 30.4487 139.497 30.3706 139.497 30.2144V24.8472C139.497 24.6909 139.583 24.6128 139.755 24.6128H148.731C148.856 24.6128 148.919 24.6909 148.919 24.8472V32.8159C148.919 34.6128 148.497 36.2378 147.653 37.6909C146.794 39.144 145.661 40.3003 144.255 41.1597C142.848 42.019 141.263 42.4487 139.497 42.4487ZM163.6 42.4487C161.897 42.4487 160.327 42.0112 158.889 41.1362C157.467 40.2612 156.319 39.0972 155.444 37.644C154.584 36.1753 154.155 34.5659 154.155 32.8159L154.202 17.605C154.202 15.8237 154.631 14.2222 155.491 12.8003C156.334 11.3628 157.475 10.2144 158.912 9.35498C160.35 8.47998 161.912 8.04248 163.6 8.04248C165.35 8.04248 166.92 8.47217 168.311 9.33154C169.717 10.1909 170.842 11.3472 171.686 12.8003C172.545 14.2378 172.975 15.8394 172.975 17.605L173.022 32.8159C173.022 34.5659 172.6 36.1675 171.756 37.6206C170.897 39.0894 169.756 40.2612 168.334 41.1362C166.912 42.0112 165.334 42.4487 163.6 42.4487ZM163.6 36.6597C164.569 36.6597 165.412 36.269 166.131 35.4878C166.85 34.6909 167.209 33.8003 167.209 32.8159L167.162 17.605C167.162 16.5425 166.827 15.644 166.155 14.9097C165.483 14.1753 164.631 13.8081 163.6 13.8081C162.616 13.8081 161.772 14.1675 161.069 14.8862C160.366 15.605 160.014 16.5112 160.014 17.605V32.8159C160.014 33.8628 160.366 34.769 161.069 35.5347C161.772 36.2847 162.616 36.6597 163.6 36.6597Z" fill="black"/>
</svg>
