<svg width="249" height="254" viewBox="0 0 249 254" fill="none" xmlns="http://www.w3.org/2000/svg">
<path d="M193.522 21.1949C193.917 21.4744 194.311 21.754 194.718 22.042C200.735 26.3333 206.244 30.984 211.554 36.118C212.005 36.5363 212.455 36.9547 212.919 37.3858C235.513 58.8823 248.008 91.7998 248.988 122.53C249.342 145.425 244.376 167.731 233.317 187.836C233.105 188.221 232.893 188.607 232.674 189.005C226.667 199.766 219.001 208.992 210.311 217.682C209.832 218.189 209.353 218.697 208.86 219.219C202.03 226.351 194.031 232.111 185.439 236.957C185.007 237.203 184.575 237.448 184.13 237.7C160.531 250.967 132.067 256.783 105.227 251.88C104.691 251.783 104.155 251.687 103.603 251.587C71.1414 245.518 41.9969 226.916 23.1505 199.65C20.9477 196.408 18.8956 193.092 16.9326 189.701C16.6923 189.288 16.452 188.875 16.2045 188.449C6.47624 171.5 0.683066 151.433 0.144124 131.874C0.112062 131.067 0.0800012 130.26 0.0469684 129.428C-0.797641 99.176 9.77865 68.4938 29.3684 45.4449C29.9211 44.7708 30.4732 44.0964 31.0249 43.4216C51.2435 18.954 81.0738 3.56844 112.611 0.481378C140.836 -1.90817 170.286 4.53692 193.522 21.1949ZM73.5158 29.2782C72.5095 29.8265 72.5095 29.8265 71.4828 30.3858C46.822 44.3149 28.7072 68.1574 20.6633 95.1884C15.4657 114.354 14.8249 133.637 19.4197 153.015C33.743 153.603 46.1533 149.135 56.8828 139.647C57.8799 138.727 58.8626 137.792 59.8364 136.849C60.2101 136.493 60.5838 136.138 60.9688 135.772C64.0971 132.74 66.7451 129.516 69.3187 126.006C69.7201 125.466 70.1214 124.925 70.535 124.369C73.0905 120.913 75.5707 117.41 78.0238 113.881C80.7898 109.906 83.7296 106.16 86.9208 102.519C87.8162 101.496 88.6985 100.461 89.5489 99.4001C97.2249 89.9324 109.344 83.5488 121.394 82.1307C128.35 81.5891 135.287 81.6075 141.913 83.9961C142.529 84.2077 143.144 84.4193 143.779 84.6373C153.468 88.2956 160.748 95.0782 165.184 104.416C167.215 109.401 168.2 114.803 169.272 120.06C168.62 119.798 167.969 119.536 167.297 119.266C166.44 118.922 165.583 118.578 164.725 118.234C164.296 118.061 163.867 117.888 163.425 117.71C157.736 115.429 151.523 114.528 145.518 116.293C141.68 118.126 139.431 120.319 137.716 124.218C136.251 128.5 136.442 133.066 138.042 137.288C142.178 145.021 149.359 148.416 157.273 151.101C165.669 153.396 174.209 153.181 182.83 153.137C184.184 153.134 185.538 153.133 186.891 153.131C190.426 153.127 193.961 153.114 197.496 153.101C201.114 153.088 204.732 153.082 208.35 153.076C215.429 153.063 222.508 153.041 229.586 153.015C229.888 151.62 230.19 150.224 230.49 148.829C230.742 147.663 230.742 147.663 230.999 146.474C234.666 128.935 233.071 110.335 227.721 93.323C227.574 92.8525 227.426 92.382 227.275 91.8972C223.405 79.8624 217.503 68.443 209.689 58.5025C209.266 57.9431 208.844 57.3836 208.409 56.8072C191.682 35.3698 166.573 20.7058 139.549 17.2407C116.388 14.6205 94.0716 18.0154 73.5158 29.2782ZM100.253 108.868C99.7761 109.346 99.2991 109.825 98.8078 110.318C94.767 114.576 91.5284 119.404 88.1957 124.216C79.5265 136.695 79.5265 136.695 74.7351 141.772C73.5963 142.981 72.549 144.232 71.495 145.515C59.2075 159.529 42.3645 165.573 24.3941 167.938C30.6317 182.947 38.9652 195.619 50.5094 207.111C51.0841 207.686 51.6588 208.261 52.251 208.853C72.5531 228.169 100.503 237.764 128.26 237.135C154.644 236.108 179.481 225.39 198.496 207.111C198.788 206.836 199.079 206.561 199.379 206.277C210.364 195.863 219.916 182.436 224.612 167.938C223.588 167.933 223.588 167.933 222.543 167.927C216.059 167.891 209.575 167.846 203.091 167.792C199.759 167.764 196.427 167.74 193.095 167.723C189.869 167.707 186.644 167.681 183.419 167.65C182.198 167.64 180.977 167.633 179.757 167.629C169.867 167.594 159.75 167.117 150.346 163.741C149.888 163.582 149.43 163.422 148.958 163.257C139.884 159.963 131.074 154.181 126.368 145.554C122.447 136.893 121.19 128.523 124.503 119.438C127.574 111.715 132.542 106.804 140.048 103.272C141.73 102.694 143.264 102.332 145.022 102.028C141.252 97.4382 135.023 96.2577 129.39 95.6717C117.651 95.1717 108.123 100.795 100.253 108.868Z" fill="white"/>
</svg>
