<svg width="351" height="102" viewBox="0 0 351 102" fill="none" xmlns="http://www.w3.org/2000/svg">
<path d="M345.686 2.64957C346.321 2.64969 346.231 2.54721 346.619 2.87548C347.058 3.90145 346.837 19.2577 346.832 21.7395L346.847 54.9568V81.9847C346.847 83.6713 347.047 96.8317 346.53 97.3635C345.717 97.504 343.312 97.4121 342.317 97.411L333.288 97.4331L295.541 97.448L293.291 97.4008C293.447 93.0909 293.32 88.2817 293.327 83.9349C293.385 76.1346 293.395 68.334 293.36 60.5338L293.425 2.90188C295.34 2.63721 298.357 2.69727 300.334 2.69658L310.928 2.71084C322.514 2.79911 334.101 2.7787 345.686 2.64957ZM334.332 67.5505C334.116 71.226 334.544 74.4109 332.925 78.0316C329.158 86.4479 317.775 89.5257 310.839 82.9652C309.314 81.5218 307.677 79.0276 305.469 78.4863C303.498 78.4685 302.69 78.6877 301.249 80.0623C298.042 83.097 300.482 86.3935 302.964 88.8449C317.097 102.805 341.338 94.9072 343.563 74.9187C343.767 73.0823 343.675 71.1729 343.716 69.3253C343.745 68.0469 343.728 66.7609 343.729 65.4821L343.741 51.485C343.731 43.9769 342.622 37.4635 336.994 31.8459C332.425 27.2915 326.227 24.746 319.775 24.7727C319.151 24.7749 317.949 24.8019 317.338 24.8747C304.138 26.3042 295.027 38.1899 296.469 51.2954C297.138 57.3836 300.173 62.9647 304.923 66.8359C309.824 70.7569 316.433 72.8333 322.704 72.1433C327.104 71.6593 330.685 69.9525 334.332 67.5505Z" fill="#4C4B4B"/>
<path d="M319.766 34.3541C327.626 34.2205 334.092 40.5084 334.175 48.3658C334.258 56.2232 327.926 62.6465 320.066 62.679C312.276 62.7113 305.921 56.4517 305.839 48.6655C305.757 40.8791 311.978 34.4866 319.766 34.3541Z" fill="#4C4B4B"/>
<path d="M215.312 2.78348C215.425 2.78072 215.538 2.77975 215.651 2.78054C221.079 2.80417 220.469 8.77581 220.473 12.5309L220.469 21.2372L220.514 47.6704C220.461 54.5691 218.415 60.29 213.402 65.2158C208.86 69.6973 202.738 72.2122 196.357 72.2169C190.721 72.1652 184.587 69.8132 180.615 65.7797C177.461 62.6186 174.681 58.5396 173.713 54.1225C172.255 47.6932 173.472 40.947 177.088 35.433C183.27 25.8513 196.319 22.0643 206.614 26.896C208.18 27.6312 209.694 28.7464 211.151 29.69C210.906 27.1785 211.183 22.5988 211.135 19.8523C211.2 15.7525 211.026 11.6294 211.27 7.53649C211.428 4.89871 212.715 3.27394 215.312 2.78348ZM198.68 62.623C206.483 61.5541 211.943 54.3655 210.877 46.5644C209.81 38.7634 202.621 33.3021 194.818 34.3648C187.009 35.4279 181.541 42.6194 182.607 50.425C183.676 58.2305 190.871 63.6925 198.68 62.623Z" fill="#4C4B4B"/>
<path d="M47.8167 2.78188C51.0598 2.64938 52.8596 5.15752 52.8718 8.21196C52.9021 15.7971 52.8622 23.3819 52.8851 30.9679L52.9199 42.359C52.9307 46.1695 53.1555 50.1468 52.2669 53.8441C51.2659 57.9705 49.1912 61.759 46.2534 64.8255C41.8767 69.4176 35.8555 72.0848 29.5126 72.2411C23.1536 72.4358 17.3739 69.8102 12.7902 65.5094C9.75224 62.9245 6.94664 57.6424 6.12551 53.7003C4.80928 47.3916 6.04352 40.8186 9.55876 35.4163C15.8982 25.7404 28.7055 22.0821 39.1954 26.9243C40.7134 27.6251 42.2198 28.6864 43.617 29.6056C43.3226 26.0732 43.5977 21.3395 43.5157 17.6882C43.5686 14.3323 43.4078 10.9535 43.6384 7.60555C43.8235 4.92139 45.1045 3.15344 47.8167 2.78188ZM31.245 62.6048C39.0218 61.4782 44.4236 54.2785 43.3282 46.5001C42.233 38.7217 35.0529 33.2925 27.2673 34.3556C19.4364 35.4247 13.9668 42.653 15.0684 50.4766C16.17 58.2999 23.4232 63.7379 31.245 62.6048Z" fill="#4C4B4B"/>
<path d="M140.444 24.987C153.418 23.5843 165.077 32.9493 166.501 45.9162C167.924 58.8828 158.574 70.5524 145.604 71.9953C132.607 73.4413 120.902 64.0692 119.475 51.0742C118.049 38.0789 127.442 26.3927 140.444 24.987ZM144.921 62.6365C152.749 61.5697 158.225 54.3546 157.144 46.5311C156.064 38.7077 148.836 33.2463 141.012 34.3404C133.207 35.4315 127.76 42.6347 128.838 50.4387C129.916 58.2429 137.112 63.7006 144.921 62.6365Z" fill="#4C4B4B"/>
<path d="M252.068 29.6149C254.636 27.9295 256.586 26.7685 259.566 25.846C265.421 24.0049 271.77 24.5868 277.19 27.4616C282.804 30.3577 286.997 35.413 288.803 41.4638C290.544 47.1194 290.008 53.0472 290.059 58.8771C290.083 61.6751 290.202 64.4491 290.07 67.2382C289.929 70.7558 286.486 73.5906 283.115 71.7007C279.833 69.8604 280.794 65.9029 280.595 62.8914C280.258 57.7958 281.419 49.6199 280.025 44.8755C280.011 44.8288 279.999 44.7823 279.988 44.7359C278.977 41.069 276.538 37.9599 273.216 36.1041C264.31 31.0539 253.444 36.6645 252.129 46.7793C251.836 49.0267 251.994 51.8252 252.006 54.1148L252.056 63.8282C252.064 65.6437 252.242 68.2792 251.342 69.858C250.693 70.9751 249.628 71.7909 248.382 72.1279C247.308 72.4114 245.978 72.2913 245.016 71.7147C241.961 69.8864 242.617 65.1696 242.619 62.0413L242.627 51.6296L242.631 37.8976C242.631 35.2514 242.614 32.6263 242.687 29.9803C242.768 27.0762 243.992 25.5821 246.82 24.8413C249.991 24.5899 251.648 26.6615 252.068 29.6149Z" fill="#4C4B4B"/>
<path d="M95.8481 24.8759C100.708 24.5509 105.219 25.1198 109.667 27.4133C113.367 29.321 114.385 32.8663 111.252 36.0189C108.29 38.9192 104.908 35.3037 101.984 34.6063C92.6334 32.3753 83.8926 39.8968 84.5247 49.4314C85.161 59.0322 94.4985 64.7898 103.33 61.9613C106.113 61.0702 107.843 58.9076 110.772 60.6139C113.707 63.0323 114.155 66.8924 110.595 68.9435C103.022 73.3076 94.1246 73.4197 86.6094 68.8372C81.2035 65.5512 77.316 60.2624 75.794 54.1236C73.4409 44.3085 77.5815 33.9363 85.995 28.6417C89.4937 26.44 91.8952 25.8143 95.8481 24.8759Z" fill="#4C4B4B"/>
<path d="M230.695 24.8422C231.601 24.8061 232.423 24.7797 233.272 25.1439C234.544 25.69 235.41 26.8238 235.881 28.1023C236.484 29.7433 236.412 63.2688 236.188 67.4522C236.155 68.0445 236.087 68.6221 235.83 69.1631C235.053 70.7906 233.981 71.6029 232.317 72.2063C231.536 72.3908 230.778 72.3088 230.028 72.03C228.788 71.5698 227.913 70.5058 227.379 69.3296C227.001 68.4953 226.932 67.7674 226.883 66.8676C226.667 62.9359 226.564 29.5292 227.153 28.0855C227.843 26.3915 229.064 25.536 230.695 24.8422Z" fill="#4C4B4B"/>
<path d="M63.2781 24.8475C64.1711 24.8087 64.7328 24.775 65.5631 25.1273C66.7853 25.6433 67.7436 26.6359 68.2159 27.8752C69.0336 29.9785 68.3916 63.0262 68.5729 67.5073C68.591 67.9536 68.4445 68.7094 68.2295 69.1508C67.3736 70.9081 66.47 71.5978 64.6912 72.2469C63.8656 72.4093 63.0844 72.2957 62.319 71.958C61.1284 71.4329 60.1146 70.4133 59.659 69.1854C58.8771 67.0783 59.0697 35.0477 59.2782 30.7738C59.3269 29.7748 59.3382 28.475 59.7674 27.5675C60.4916 26.0364 61.7398 25.3882 63.2781 24.8475Z" fill="#4C4B4B"/>
<path d="M231.158 2.86024C233.711 2.66639 235.94 4.57353 236.142 7.1249C236.344 9.67625 234.444 11.9102 231.891 12.1204C229.328 12.3315 227.082 10.421 226.878 7.8581C226.674 5.29518 228.594 3.05498 231.158 2.86024Z" fill="#4C4B4B"/>
<path d="M63.5767 2.85259C66.1362 2.64665 68.3755 4.55944 68.5712 7.1187C68.7669 9.67795 66.8443 11.9087 64.2834 12.094C61.7369 12.2783 59.5209 10.3698 59.3262 7.82509C59.1317 5.28039 61.0319 3.05736 63.5767 2.85259Z" fill="#4C4B4B"/>
</svg>
