<svg width="1895" height="617" viewBox="0 0 1895 617" fill="none" xmlns="http://www.w3.org/2000/svg">
<path d="M1673 0C1673.19 2.3125 1673.19 2.3125 1673 5C1672.02 6.0202 1671.02 7.0215 1670 8C1670 9.32 1670 10.64 1670 12C1669 13 1668 14 1667 15C1667 16.32 1667 17.64 1667 19C1665.68 19 1664.36 19 1663 19C1663 19.66 1663 20.32 1663 21C1662.01 21 1661.02 21 1660 21C1660 21.66 1660 22.32 1660 23C1655.07 25.0399 1651.42 26.4065 1646 26C1646 28.31 1646 30.62 1646 33C1645.67 33 1645.34 33 1645 33C1644.88 33.5917 1644.76 34.1834 1644.63 34.793C1643.73 39.038 1642.8 43.0244 1641 47C1640.34 47 1639.68 47 1639 47C1638.73 47.6394 1638.46 48.2788 1638.19 48.9375C1637 51 1637 51 1634 52C1633.5 52.99 1633.5 52.99 1633 54C1633.33 54.33 1633.66 54.66 1634 55C1634.36 55.5981 1634.72 56.1963 1635.09 56.8125C1637.84 61.2368 1637.84 61.2368 1642.22 63.7148C1644.49 63.931 1646.72 63.9916 1649 64C1650.67 64.307 1652.34 64.6256 1654 65C1654 65.66 1654 66.32 1654 67C1655.65 67 1657.3 67 1659 67C1659 67.66 1659 68.32 1659 69C1659.66 69 1660.32 69 1661 69C1660.67 73.95 1660.34 78.9 1660 84C1659.01 84 1658.02 84 1657 84C1656.5 85.485 1656.5 85.485 1656 87C1654.35 86.67 1652.7 86.34 1651 86C1651 85.01 1651 84.02 1651 83C1650.34 83 1649.68 83 1649 83C1648.67 84.65 1648.34 86.3 1648 88C1646.68 88 1645.36 88 1644 88C1644 87.01 1644 86.02 1644 85C1643.1 85.3094 1643.1 85.3094 1642.19 85.625C1640 86 1640 86 1637 84C1636.59 81.288 1636.87 78.7563 1637 76C1636.34 76 1635.68 76 1635 76C1635 74.35 1635 72.7 1635 71C1634.26 70.7319 1633.51 70.4638 1632.75 70.1875C1630.11 69.0472 1628.14 67.9062 1626 66C1626 65.34 1626 64.68 1626 64C1625.01 64 1624.02 64 1623 64C1623 63.34 1623 62.68 1623 62C1621.89 61.8144 1621.89 61.8144 1620.75 61.625C1618.2 61.0451 1616.27 60.2629 1614 59C1614 58.34 1614 57.68 1614 57C1611.35 55.9247 1608.72 54.9054 1606 54C1606 53.34 1606 52.68 1606 52C1605.34 52 1604.68 52 1604 52C1604 51.34 1604 50.68 1604 50C1603.46 49.7938 1602.93 49.5875 1602.38 49.375C1599.08 47.4675 1596.41 44.9518 1594 42C1594 41.34 1594 40.68 1594 40C1593.34 40 1592.68 40 1592 40C1590.65 38.0131 1589.31 36.0125 1588 34C1587.34 33.67 1586.68 33.34 1586 33C1586 32.34 1586 31.68 1586 31C1585.11 30.8762 1584.23 30.7525 1583.31 30.625C1580.3 30.0559 1577.8 29.2339 1575 28C1575 27.34 1575 26.68 1575 26C1574.34 26 1573.68 26 1573 26C1573 24.68 1573 23.36 1573 22C1574.98 22 1576.96 22 1579 22C1579 22.66 1579 23.32 1579 24C1580.65 24 1582.3 24 1584 24C1584 24.66 1584 25.32 1584 26C1584.83 25.5185 1584.83 25.5185 1585.68 25.0273C1589.97 23.128 1594.41 23.3642 1599 24C1602.25 25.3395 1605.11 27.0044 1608 29C1608 29.66 1608 30.32 1608 31C1609.65 31 1611.3 31 1613 31C1614.75 27.1725 1615.35 23.8756 1615.62 19.6875C1615.7 18.6189 1615.77 17.5502 1615.85 16.4492C1615.9 15.641 1615.95 14.8327 1616 14C1616.66 14 1617.32 14 1618 14C1618 13.34 1618 12.68 1618 12C1618.66 12 1619.32 12 1620 12C1620 11.34 1620 10.68 1620 10C1624.04 8.11815 1627.51 7.64735 1631.95 7.40234C1632.6 7.36315 1633.25 7.32396 1633.92 7.28358C1635.99 7.16026 1638.06 7.04814 1640.12 6.9375C1642.2 6.82176 1644.28 6.70356 1646.35 6.5807C1648.23 6.47023 1650.11 6.3676 1651.98 6.26538C1655.05 6.11332 1655.05 6.11332 1658 5C1658 4.34 1658 3.68 1658 3C1659.98 2.34 1661.96 1.68 1664 1C1664.99 1.99 1664.99 1.99 1666 3C1666.78 2.505 1667.57 2.01 1668.38 1.5C1671 0 1671 0 1673 0Z" fill="#010101"/>
<path d="M1542 86C1545.3 86 1548.6 86 1552 86C1551.62 88.4375 1551.62 88.4375 1551 91C1550.34 91.33 1549.68 91.66 1549 92C1549.66 92 1550.32 92 1551 92C1550.81 94.3125 1550.81 94.3125 1550 97C1545.97 100 1545.97 100 1543 100C1543 100.66 1543 101.32 1543 102C1542.01 102 1541.02 102 1540 102C1540 102.66 1540 103.32 1540 104C1539.01 104.33 1538.02 104.66 1537 105C1536.67 107.97 1536.34 110.94 1536 114C1535.34 114 1534.68 114 1534 114C1534 115.65 1534 117.3 1534 119C1533.34 119 1532.68 119 1532 119C1531.69 119.619 1531.38 120.238 1531.06 120.875C1530.38 122.25 1529.69 123.625 1529 125C1532.3 125.66 1535.6 126.32 1539 127C1539 127.66 1539 128.32 1539 129C1543.63 130.045 1548.29 130.518 1553 131C1552.72 131.959 1552.72 131.959 1552.44 132.938C1552.29 133.618 1552.15 134.299 1552 135C1552.33 135.33 1552.66 135.66 1553 136C1552.71 137.344 1552.37 138.676 1552 140C1551.66 141.665 1551.32 143.332 1551 145C1549.68 145 1548.36 145 1547 145C1546.5 145.99 1546.5 145.99 1546 147C1544.68 147 1543.36 147 1542 147C1542 146.34 1542 145.68 1542 145C1541.34 145 1540.68 145 1540 145C1540 145.66 1540 146.32 1540 147C1539.34 147 1538.68 147 1538 147C1538 146.34 1538 145.68 1538 145C1537.01 144.67 1536.02 144.34 1535 144C1534.5 141.03 1534.5 141.03 1534 138C1533.34 138 1532.68 138 1532 138C1532 137.34 1532 136.68 1532 136C1529.03 135.67 1526.06 135.34 1523 135C1523 134.34 1523 133.68 1523 133C1521.68 133 1520.36 133 1519 133C1519 132.34 1519 131.68 1519 131C1517.78 130.876 1516.57 130.752 1515.31 130.625C1511.94 130.211 1509.1 129.454 1506 128C1506 127.34 1506 126.68 1506 126C1504.68 126 1503.36 126 1502 126C1502 125.34 1502 124.68 1502 124C1500.35 123.67 1498.7 123.34 1497 123C1497 122.34 1497 121.68 1497 121C1496.01 121 1495.02 121 1494 121C1494 120.34 1494 119.68 1494 119C1493.32 118.939 1492.65 118.879 1491.95 118.816C1491.06 118.733 1490.17 118.649 1489.25 118.562C1488.37 118.481 1487.49 118.4 1486.58 118.316C1484.31 118.038 1482.2 117.612 1480 117C1480 116.01 1480 115.02 1480 114C1482.74 112.629 1485.05 113.164 1488.03 113.453C1488.68 113.304 1489.33 113.154 1490 113C1490.45 112.176 1490.9 111.353 1491.37 110.504C1491.91 109.678 1492.44 108.851 1493 108C1495.92 107.512 1495.92 107.512 1499.19 107.688C1500.27 107.733 1501.36 107.778 1502.48 107.824C1503.31 107.882 1504.14 107.94 1505 108C1505 108.66 1505 109.32 1505 110C1506.98 110 1508.96 110 1511 110C1511.66 107.36 1512.32 104.72 1513 102C1512.34 102 1511.68 102 1511 102C1511 100.68 1511 99.36 1511 98C1511.66 98 1512.32 98 1513 98C1513 97.34 1513 96.68 1513 96C1514.65 95.67 1516.3 95.34 1518 95C1518 94.34 1518 93.68 1518 93C1520.31 93 1522.62 93 1525 93C1525 92.34 1525 91.68 1525 91C1527.97 91 1530.94 91 1534 91C1534 90.34 1534 89.68 1534 89C1536.64 88.67 1539.28 88.34 1542 88C1542 87.34 1542 86.68 1542 86Z" fill="#020202"/>
<path d="M1633 160C1634.32 160 1635.64 160 1637 160C1637 160.66 1637 161.32 1637 162C1639.31 162 1641.62 162 1644 162C1644 161.34 1644 160.68 1644 160C1646.64 160 1649.28 160 1652 160C1652 160.66 1652 161.32 1652 162C1652.8 161.938 1653.61 161.876 1654.44 161.812C1658.98 162.051 1662.77 163.42 1667 165C1667 165.66 1667 166.32 1667 167C1667.99 167 1668.98 167 1670 167C1670 167.66 1670 168.32 1670 169C1670.78 169.309 1671.57 169.619 1672.38 169.938C1675 171 1675 171 1677 172C1677 172.66 1677 173.32 1677 174C1679.33 174.381 1681.66 174.713 1684 175C1684.33 174.67 1684.66 174.34 1685 174C1687 173.959 1689 173.957 1691 174C1691 173.34 1691 172.68 1691 172C1691.99 172 1692.98 172 1694 172C1694 172.99 1694 173.98 1694 175C1694.66 175.33 1695.32 175.66 1696 176C1695.34 176 1694.68 176 1694 176C1694 176.99 1694 177.98 1694 179C1695.32 179 1696.64 179 1698 179C1698 181.64 1698 184.28 1698 187C1696.68 187.33 1695.36 187.66 1694 188C1694 189.65 1694 191.3 1694 193C1692.68 192.34 1691.36 191.68 1690 191C1689.67 191.66 1689.34 192.32 1689 193C1689.99 193.495 1689.99 193.495 1691 194C1690.34 194.66 1689.68 195.32 1689 196C1687.05 195.969 1687.05 195.969 1685 195C1683.33 192.245 1682.08 189.402 1680.76 186.469C1679.17 183.68 1679.17 183.68 1675.8 183.156C1674.88 183.105 1673.95 183.053 1673 183C1672.94 184.052 1672.88 185.104 1672.81 186.188C1671.85 190.699 1670.45 192.047 1667 195C1666.2 195.897 1666.2 195.897 1665.38 196.812C1664 198 1664 198 1661 198C1661 198.66 1661 199.32 1661 200C1659.35 200 1657.7 200 1656 200C1656 200.66 1656 201.32 1656 202C1653.36 202 1650.72 202 1648 202C1647.86 202.784 1647.71 203.567 1647.56 204.375C1647 207 1647 207 1646 209C1644.68 209 1643.36 209 1642 209C1641.67 207.68 1641.34 206.36 1641 205C1639.35 205.66 1637.7 206.32 1636 207C1635.34 206.34 1634.68 205.68 1634 205C1634.33 204.01 1634.66 203.02 1635 202C1635.66 202 1636.32 202 1637 202C1637 201.34 1637 200.68 1637 200C1637.99 200 1638.98 200 1640 200C1639.5 198.515 1639.5 198.515 1639 197C1638.87 194.326 1638.96 191.679 1639 189C1639.99 188.67 1640.98 188.34 1642 188C1642 187.34 1642 186.68 1642 186C1642.99 186 1643.98 186 1645 186C1645 185.34 1645 184.68 1645 184C1645.66 184 1646.32 184 1647 184C1647 183.34 1647 182.68 1647 182C1647.66 182 1648.32 182 1649 182C1649 181.257 1649 180.515 1649 179.75C1649 176.833 1649 173.917 1649 171C1648.01 171 1647.02 171 1646 171C1646 170.34 1646 169.68 1646 169C1645.44 168.862 1644.87 168.724 1644.29 168.582C1641.95 167.988 1639.63 167.373 1637.31 166.688C1636.52 166.464 1635.74 166.241 1634.93 166.012C1633 165 1633 165 1632.17 162.957C1632.08 161.988 1632.08 161.988 1632 161C1632.33 160.67 1632.66 160.34 1633 160Z" fill="#020202"/>
<path d="M700.113 209.121C700.757 209.369 701.4 209.616 702.063 209.871C702.063 211.522 702.063 213.172 702.063 214.873C703.036 214.91 704.008 214.948 705.01 214.986C706.284 215.052 707.557 215.118 708.831 215.185C709.793 215.219 709.793 215.219 710.774 215.254C712.638 215.361 712.638 215.361 715.828 215.873C716.434 216.863 717.039 217.854 717.663 218.874C717.966 218.214 718.269 217.554 718.581 216.873C720.511 216.765 722.442 216.688 724.374 216.623C725.987 216.554 725.987 216.554 727.632 216.483C730.51 216.873 730.51 216.873 732.27 218.765C733.263 220.875 733.263 220.875 733.263 222.875C735.383 223.535 737.503 224.195 739.687 224.876C739.516 226.01 739.346 227.145 739.171 228.314C739.038 229.49 738.906 230.666 738.769 231.878C739.072 232.208 739.375 232.538 739.687 232.878C740.785 232.713 741.882 232.548 743.013 232.378C745.003 232.319 745.003 232.319 747.028 232.878C749.609 235.573 751.505 238.628 753.451 241.881C753.754 242.211 754.057 242.541 754.369 242.881C754.407 245.215 754.408 247.549 754.369 249.883C750.01 251.008 750.01 251.008 747.946 249.883C747.34 251.534 746.734 253.184 746.11 254.885C740.719 254.009 740.719 254.009 739.687 252.884C739.081 255.195 738.476 257.505 737.852 259.886C739.209 259.913 740.566 259.932 741.924 259.949C743.057 259.966 743.057 259.966 744.214 259.984C746.103 260.119 746.103 260.119 747.028 258.886C748.364 258.787 749.704 258.756 751.043 258.761C751.769 258.758 752.495 258.756 753.244 258.753C755.287 258.886 755.287 258.886 758.04 259.886C759.251 259.886 760.462 259.886 761.71 259.886C763.201 262.262 763.201 262.262 764.463 264.887C765.069 265.548 765.675 266.208 766.299 266.888C766.413 270.014 766.413 270.014 766.299 272.89C761.94 273.89 761.94 273.89 759.875 273.89C763.153 275.834 766.434 277.773 769.716 279.708C770.83 280.366 771.943 281.025 773.056 281.685C774.665 282.639 776.276 283.588 777.887 284.538C778.853 285.109 779.819 285.68 780.814 286.268C783.884 287.978 786.975 289.452 790.157 290.895C790.82 289.925 791.482 288.956 792.165 287.957C793.643 285.793 794.475 284.993 796.846 284.12C799.831 283.848 802.117 284.379 805.012 285.206C805.971 285.47 806.93 285.735 807.919 286.007C810.345 286.894 810.345 286.894 812.181 288.895C812.692 295.032 812.693 295.032 811.034 297.835C809.428 298.897 809.428 298.897 805.757 298.897C805.757 299.558 805.757 300.218 805.757 300.898C806.746 301.314 806.746 301.314 807.754 301.738C811.089 303.231 814.28 305.007 817.497 306.779C825.385 309.785 834.274 309.04 842.52 309.015C843.822 309.015 845.125 309.015 846.427 309.015C850.016 309.015 853.606 309.007 857.196 308.999C860.326 308.992 863.456 308.989 866.586 308.986C901.987 308.946 937.387 308.747 972.788 308.568C1045.55 308.201 1118.31 307.889 1393.71 307.771C1417.26 307.775 1440.81 307.774 1464.36 307.77C1492.31 307.764 1520.25 307.762 1548.2 307.765C1551.17 307.766 1554.14 307.766 1557.12 307.766C1557.85 307.766 1558.58 307.766 1559.33 307.767C1570.21 307.768 1581.08 307.766 1591.96 307.764C1604.21 307.761 1616.46 307.762 1628.71 307.767C1634.92 307.77 1641.13 307.771 1647.33 307.767C1672.45 307.755 1697.53 307.901 1722.64 308.786C1732.71 309.114 1742.8 309.244 1752.88 309.401C1754.11 309.42 1755.34 309.44 1756.57 309.46C1802.71 310.197 1848.86 310.502 1895 310.901C1895 320.474 1895 330.047 1895 339.91C1883.57 341.577 1872.58 341.978 1861.09 341.567C1856.94 341.421 1852.78 341.302 1848.63 341.183C1847.76 341.158 1846.9 341.134 1846 341.108C1831.44 340.71 1816.86 340.685 1802.29 340.67C1798.82 340.665 1795.36 340.651 1791.89 340.629C1767.79 340.475 1743.64 340.766 1719.7 344.177C1713.74 345.004 1707.85 345.032 1701.86 344.993C1700.73 344.99 1699.61 344.987 1698.46 344.984C1696.03 344.976 1693.61 344.968 1691.18 344.956C1687.32 344.937 1683.45 344.928 1679.58 344.92C1668.59 344.896 1657.6 344.86 1646.6 344.815C1640.52 344.79 1634.44 344.773 1628.36 344.763C1625.16 344.758 1621.96 344.749 1618.76 344.73C1604.5 344.652 1590.4 345.045 1576.17 346.192C1566.59 346.954 1557.08 347.158 1547.47 347.072C1545.8 347.066 1544.14 347.06 1542.47 347.056C1538.17 347.043 1533.86 347.019 1529.56 346.991C1522.68 346.947 1515.8 346.917 1508.92 346.895C1506.58 346.885 1504.25 346.868 1501.91 346.85C1492.92 346.8 1483.97 347.022 1474.99 347.396C1460.8 347.98 1446.63 348.113 1432.43 348.182C1428.84 348.201 1425.25 348.225 1421.66 348.249C1413.31 348.303 1404.95 348.352 1396.6 348.399C1383.9 348.471 1371.19 348.547 1358.49 348.631C1357.39 348.638 1357.39 348.638 1356.27 348.646C1317.69 348.903 1279.12 349.591 1240.56 350.724C1178.41 352.539 1116.24 353.287 1054.07 352.63C1051.24 352.601 1048.42 352.575 1045.59 352.549C1041.2 352.508 1036.81 352.456 1032.41 352.395C1030.81 352.374 1029.21 352.355 1027.6 352.34C1025.41 352.319 1023.22 352.285 1021.04 352.248C1020.4 352.244 1019.77 352.24 1019.12 352.237C1015.28 352.155 1012.13 351.424 1008.56 349.913C1008.56 348.592 1008.56 347.272 1008.56 345.911C1013.21 343.959 1017.59 343.334 1022.51 342.856C1023.32 342.773 1024.13 342.69 1024.96 342.605C1033.15 341.793 1041.35 341.212 1049.56 340.785C1050.36 340.743 1051.15 340.701 1051.96 340.658C1081.58 339.152 1111.54 338.58 1141.11 341.189C1171.43 343.681 1202.16 342.073 1232.46 339.91C1201.7 338.121 1170.94 336.497 1140.17 334.993C1136.5 334.813 1132.83 334.631 1129.15 334.447C1110.05 333.489 1091 332.57 1071.87 332.908C1070.12 332.931 1068.36 332.954 1066.61 332.976C1061.37 333.051 1056.13 333.16 1050.88 333.283C1049.96 333.304 1049.04 333.325 1048.09 333.347C1032.13 333.724 1016.21 334.487 1000.28 335.647C996.663 335.906 993.05 336.144 989.436 336.377C977.281 337.182 965.204 338.306 953.103 339.797C945.006 340.774 936.906 341.5 928.779 342.098C927.665 342.182 926.551 342.265 925.404 342.352C912.467 343.255 899.913 342.691 887.026 341.473C866.632 339.556 846.346 338.722 825.873 338.724C822.435 338.722 818.997 338.703 815.559 338.685C805.091 338.658 794.871 338.84 784.497 340.408C778.188 341.308 771.847 341.577 765.496 341.91C764.004 341.993 762.512 342.077 761.021 342.161C752.312 342.639 743.602 343.019 734.887 343.34C730.962 343.487 727.037 343.635 723.112 343.786C722.128 343.823 721.144 343.861 720.13 343.9C703.984 344.538 687.952 345.842 671.871 347.512C670.222 347.683 668.573 347.854 666.924 348.025C666.141 348.106 665.358 348.188 664.552 348.271C651.71 349.581 626 350 626 350C626 350 626.094 350.087 624 350C621.906 349.913 622.068 349.913 620.727 349.913C619.385 349.913 619.5 350 618.558 349.913C613.995 350.862 609.514 351.205 604.886 351.448C604.12 351.491 603.354 351.534 602.565 351.578C600.134 351.714 597.703 351.845 595.273 351.976C593.618 352.067 591.963 352.159 590.308 352.251C586.266 352.475 582.224 352.696 578.182 352.913C578.678 353.962 578.678 353.962 579.185 355.031C579.611 355.942 580.037 356.852 580.476 357.79C580.902 358.695 581.327 359.6 581.766 360.533C582.77 362.916 582.77 362.916 582.77 364.917C583.641 364.914 584.513 364.911 585.411 364.909C606.667 364.842 627.922 364.793 649.178 364.761C659.457 364.746 669.736 364.725 680.016 364.691C688.98 364.661 697.944 364.641 706.908 364.635C711.65 364.631 716.392 364.622 721.134 364.6C725.607 364.579 730.081 364.573 734.554 364.577C736.186 364.577 737.818 364.571 739.451 364.559C762.864 364.401 762.864 364.401 771.804 369.918C771.502 371.569 771.199 373.219 770.887 374.92C766.971 376.133 763.22 375.942 759.187 375.799C758.374 375.775 757.561 375.752 756.724 375.727C754.104 375.651 751.484 375.568 748.863 375.483C717.2 374.458 685.603 375.019 653.945 375.92C647.159 376.112 640.374 376.301 633.588 376.483C632.777 376.505 631.967 376.526 631.131 376.549C616.843 376.928 602.568 377.045 588.276 376.92C588.471 377.532 588.667 378.144 588.869 378.774C589.131 379.591 589.392 380.409 589.662 381.251C590.072 382.53 590.072 382.53 590.489 383.835C591.051 385.589 591.612 387.343 592.173 389.097C595.47 399.38 598.91 409.553 602.729 419.621C603.106 420.621 603.483 421.62 603.872 422.651C604.789 425.08 605.708 427.508 606.629 429.936C607.452 429.612 608.275 429.289 609.123 428.955C614.098 427.271 618.442 427.199 623.376 429.061C626.508 431.389 628.433 433.447 630.487 436.938C631.372 442.92 630.319 446.183 627.229 451.134C625.899 452.943 625.899 452.943 623.261 455.569C621.01 457.748 621.01 457.748 621.443 460.633C622.355 464.481 623.807 467.828 625.498 471.323C625.8 471.964 626.102 472.605 626.413 473.265C627.153 474.831 627.902 476.391 628.652 477.95C642.576 471.76 656.148 465.121 669.408 457.382C673.808 454.816 678.266 452.391 682.74 449.983C686.794 447.79 690.795 445.505 694.785 443.176C721.338 427.723 721.338 427.723 731.428 429.936C734.348 431.262 736.399 432.771 737.852 435.938C738.173 441.286 738.316 444.642 735.099 448.942C733.525 450.531 731.918 452.04 730.252 453.513C728.714 454.908 727.327 456.393 725.922 457.944C735.998 457.376 743.564 456.424 752.344 450.622C759.233 446.689 767.309 446.14 774.962 445.499C775.818 445.425 776.673 445.35 777.554 445.274C779.224 445.138 780.896 445.025 782.569 444.937C786.544 444.638 789.165 444.33 792.251 441.479C796.798 437.488 802.373 437.665 807.994 437.188C809.199 437.072 810.404 436.957 811.645 436.837C824.121 435.683 836.622 435.231 849.137 435.001C851.323 434.96 853.508 434.913 855.694 434.855C888.513 433.998 888.513 433.998 902.11 438.939C904.191 439.062 906.277 439.114 908.361 439.126C909.465 439.14 910.568 439.155 911.706 439.169C914.966 439.077 918.086 438.588 921.305 438.024C931.51 436.353 941.827 435.983 952.121 435.375C955.251 435.187 958.381 434.998 961.511 434.804C963.445 434.685 965.379 434.569 967.314 434.457C971.65 434.192 975.828 433.763 980.109 432.937C983.531 432.733 986.95 432.752 990.376 432.749C991.291 432.737 992.205 432.725 993.148 432.712C994.025 432.71 994.902 432.708 995.806 432.706C997.001 432.7 997.001 432.7 998.219 432.694C1000.3 432.937 1000.3 432.937 1003.05 434.938C1006.72 434.715 1009.13 433.067 1012.1 430.776C1018.55 428.013 1026.44 430.789 1032.96 432.073C1043.22 434.078 1053.04 435.271 1063.5 434.917C1070.64 434.741 1077.11 435.945 1083.09 440.485C1087.59 443.05 1092.46 442.42 1097.44 442.386C1099.34 442.377 1101.23 442.406 1103.12 442.438C1104.33 442.437 1105.53 442.437 1106.77 442.436C1107.86 442.438 1108.96 442.44 1110.09 442.441C1113.28 442.169 1113.28 442.169 1115.88 439.937C1119.24 437.536 1121.81 437.388 1125.68 437.477C1126.67 437.479 1126.67 437.479 1127.68 437.48C1129.08 437.486 1130.47 437.502 1131.86 437.527C1133.96 437.563 1136.06 437.568 1138.16 437.567C1155.33 437.656 1155.33 437.656 1162.09 440.985C1165.27 442.218 1168.29 442.282 1171.62 442.311C1172.31 442.322 1173 442.333 1173.7 442.344C1175.93 442.37 1178.16 442.376 1180.39 442.377C1181.52 442.382 1181.52 442.382 1182.69 442.387C1194.46 442.399 1205.29 440.962 1216.78 438.063C1228.32 435.156 1239.87 437.524 1251.47 439.087C1256.13 439.703 1260.8 440.222 1265.47 440.666C1294.4 443.421 1294.4 443.421 1305.8 448.559C1309.65 450.168 1313.04 450.261 1317.11 450.067C1323.85 449.835 1323.85 449.835 1325.92 450.426C1328.44 451.085 1330.81 451.125 1333.4 451.188C1335.03 451.235 1335.03 451.235 1336.7 451.283C1337.86 451.315 1339.03 451.347 1340.23 451.38C1359.81 452.066 1378.5 454.668 1397.77 458.468C1398.55 458.622 1399.33 458.777 1400.14 458.935C1401.61 459.226 1403.08 459.52 1404.55 459.815C1411.02 461.101 1417.4 462.037 1423.99 462.192C1425.78 462.239 1425.78 462.239 1427.61 462.287C1428.56 462.31 1428.56 462.31 1429.54 462.334C1443.18 462.671 1456.81 463.178 1470.45 463.759C1472.39 463.841 1474.33 463.921 1476.27 463.998C1485.62 464.37 1494.97 464.809 1504.28 465.763C1504.96 465.821 1505.63 465.878 1506.32 465.938C1509.51 466.306 1511.22 466.76 1513.71 469.022C1514.17 469.657 1514.62 470.293 1515.1 470.948C1512.85 473.909 1511.19 474.393 1507.75 474.949C1501.43 475.282 1495.08 475.014 1488.76 474.723C1469.31 473.836 1449.87 473.801 1430.4 473.815C1426.59 473.817 1422.77 473.815 1418.96 473.813C1407.7 473.808 1396.44 473.813 1385.19 473.82C1379.87 473.824 1374.55 473.826 1369.22 473.828C1283.83 473.857 1198.47 474.398 1113.1 476.08C1039.6 477.527 966.506 476.863 893.116 471.948C892.198 471.887 892.198 471.887 891.262 471.825C880.006 471.073 880.006 471.073 874.462 470.682C839.298 468.203 804.312 467.842 769.079 468.342C763.879 468.415 758.679 468.478 753.478 468.543C743.375 468.67 733.272 468.806 723.169 468.948C723.926 469.522 723.926 469.522 724.697 470.107C725.689 470.884 725.689 470.884 726.701 471.676C727.357 472.183 728.013 472.689 728.688 473.211C730.654 475.086 731.577 476.772 732.726 479.306C733.987 481.47 733.987 481.47 736.016 482.952C741.344 483.915 746.585 483.568 751.96 483.264C754.835 483.131 757.709 483.024 760.585 482.94C761.33 482.917 762.076 482.894 762.844 482.87C768.822 482.774 774.548 483.5 780.457 484.433C793.11 486.397 805.622 486.185 818.375 485.953C822.863 485.872 827.35 485.813 831.838 485.765C833.336 485.728 833.336 485.728 834.863 485.69C844.15 485.593 852.76 487.099 860.472 492.955C867.967 498.616 875.992 500.299 884.915 501.387C885.803 501.502 886.692 501.618 887.607 501.737C890.51 502.111 893.413 502.472 896.317 502.833C898.355 503.092 900.394 503.351 902.432 503.611C916.444 505.387 930.466 507.072 944.493 508.709C945.354 508.81 946.215 508.911 947.102 509.014C949.61 509.306 952.118 509.595 954.627 509.882C955.438 509.974 956.248 510.067 957.084 510.163C961.31 510.637 965.534 511.057 969.77 511.403C970.662 511.479 971.555 511.555 972.474 511.632C974.127 511.769 975.781 511.897 977.436 512.012C981.66 512.365 985.743 512.959 989.879 513.953C1001.73 516.777 1012.26 517.157 1024.32 516.075C1026.12 515.934 1027.92 515.797 1029.71 515.661C1034.39 515.302 1039.07 514.911 1043.74 514.513C1049.38 514.037 1055.03 513.6 1060.67 513.157C1065.07 512.811 1069.47 512.46 1073.87 512.091C1089.89 510.756 1105.88 509.682 1121.96 510.128C1125.44 510.22 1128.92 510.274 1132.4 510.33C1133.13 510.341 1133.86 510.353 1134.61 510.365C1160.42 510.76 1185.48 509.933 1211.01 505.646C1211.94 505.49 1211.94 505.49 1212.89 505.33C1214.76 505.016 1216.63 504.701 1218.49 504.385C1220.93 503.974 1223.37 503.563 1225.81 503.153C1226.99 502.954 1228.17 502.755 1229.39 502.55C1246.75 499.711 1264.27 498.993 1281.8 498.192C1288.32 497.886 1294.83 497.386 1301.34 496.893C1309.8 496.277 1318.25 495.845 1326.72 495.53C1363.22 494.159 1399.73 491.824 1435.26 481.951C1453.5 476.887 1470.56 475.535 1489.4 475.95C1491.08 475.987 1491.08 475.987 1492.8 476.024C1506.3 476.355 1519.7 477.023 1533.13 478.548C1536.31 478.901 1539.43 479.035 1542.62 478.951C1541.72 477.63 1540.81 476.31 1539.87 474.949C1542.34 472.256 1543.75 472.619 1547.21 472.456C1548.35 472.393 1549.5 472.33 1550.68 472.265C1551.29 472.235 1551.9 472.204 1552.53 472.172C1569.16 471.311 1585.46 468.893 1601.86 465.833C1602.83 465.653 1603.8 465.473 1604.8 465.288C1606.58 464.952 1608.36 464.608 1610.14 464.253C1623.94 461.601 1637.9 461.759 1651.87 461.76C1654.99 461.758 1658.12 461.74 1661.24 461.721C1663.24 461.718 1665.24 461.716 1667.25 461.715C1668.63 461.704 1668.63 461.704 1670.04 461.693C1675.31 461.712 1679.81 462.304 1684.86 463.946C1684.56 465.266 1684.25 466.587 1683.94 467.947C1680.86 468.939 1677.95 469.152 1674.74 469.289C1673.06 469.364 1673.06 469.364 1671.35 469.441C1670.75 469.467 1670.15 469.492 1669.54 469.517C1667.65 469.597 1665.76 469.684 1663.87 469.772C1658.5 470.023 1653.12 470.266 1647.75 470.495C1629.15 471.292 1611.36 472.617 1593.36 478.112C1586.2 480.261 1578.91 481.415 1571.57 482.52C1565.06 483.541 1560.08 484.935 1554.55 488.953C1552.58 489.212 1552.58 489.212 1550.27 489.219C1548.98 489.225 1548.98 489.225 1547.65 489.231C1546.71 489.222 1545.77 489.213 1544.8 489.204C1543.81 489.2 1542.82 489.196 1541.8 489.192C1535.19 489.117 1528.67 488.647 1522.09 487.953C1490.7 484.788 1460.23 486.898 1429.52 494.455C1417.55 497.373 1405.8 499.637 1393.6 500.98C1392.86 501.064 1392.11 501.148 1391.35 501.234C1374.19 503.159 1356.99 504.352 1339.77 505.434C1335.84 505.683 1331.92 505.943 1327.99 506.201C1315.79 506.999 1303.59 507.785 1291.38 508.471C1276.84 509.292 1262.39 510.263 1247.95 512.273C1246.32 512.49 1244.69 512.706 1243.06 512.921C1239.7 513.364 1236.34 513.814 1232.99 514.27C1225.13 515.336 1217.26 516.36 1209.4 517.383C1206.96 517.702 1204.52 518.026 1202.08 518.35C1200.57 518.549 1199.05 518.748 1197.54 518.947C1196.88 519.035 1196.23 519.123 1195.55 519.214C1185.45 520.532 1175.45 521.097 1165.28 520.955C1162.9 520.935 1160.51 520.916 1158.13 520.898C1157.2 520.89 1157.2 520.89 1156.25 520.882C1131.76 520.679 1107.35 521.133 1082.89 522.338C1082.2 522.372 1081.51 522.406 1080.8 522.441C1072.26 522.862 1063.73 523.31 1055.19 523.774C1051.9 523.952 1048.62 524.128 1045.33 524.302C1044.36 524.354 1043.39 524.406 1042.39 524.459C1040.54 524.557 1038.68 524.655 1036.83 524.752C1032.86 524.962 1028.88 525.175 1024.9 525.405C1008.55 526.331 992.588 525.774 976.267 524.276C975.293 524.189 974.32 524.102 973.317 524.012C952.667 522.146 932.127 519.5 911.67 515.903C903.818 514.57 895.907 513.914 887.992 513.193C876.084 512.024 864.539 510.747 854.741 502.743C849.716 498.889 845.806 498.231 839.749 498.284C838.885 498.272 838.02 498.259 837.129 498.246C834.376 498.21 831.624 498.207 828.87 498.206C825.27 498.177 821.67 498.136 818.07 498.097C817.189 498.089 816.307 498.081 815.399 498.073C809.595 498.013 803.805 497.846 798.007 497.534C797.32 497.5 796.632 497.466 795.924 497.431C791.431 497.162 787.17 496.43 782.759 495.455C769.58 492.671 755.817 493.182 742.44 492.955C745.912 497.93 749.397 502.895 752.891 507.852C754.096 509.57 755.287 511.301 756.473 513.035C763.494 523.087 770.61 528.439 781.604 531.958C784.651 532.966 784.651 532.966 786.386 534.072C790.191 535.831 794.58 535.369 798.663 535.446C803.177 535.614 806.471 536.159 810.345 538.968C812.12 544.657 810.868 549.721 808.51 554.973C807.302 556.653 806.08 558.322 804.84 559.974C851.998 558.153 898.846 555.524 945.666 549.032C946.722 548.885 947.778 548.739 948.867 548.588C949.902 548.445 950.937 548.301 952.003 548.154C1017.69 539.152 1079.82 548.62 1144.46 561.558C1207.3 574.129 1269.19 581.318 1333.1 582.524C1334.2 582.545 1335.3 582.566 1336.44 582.588C1364.01 583.104 1391.58 583.169 1419.16 583.166C1423.91 583.167 1428.66 583.175 1433.42 583.187C1476.13 583.294 1518.75 582.485 1561.43 580.288C1568.32 579.943 1575.19 579.873 1582.08 579.98C1582.08 579.32 1582.08 578.66 1582.08 577.98C1581.48 577.732 1580.87 577.485 1580.25 577.229C1578.15 576.275 1576.2 575.264 1574.19 574.119C1569.37 571.47 1564.33 569.547 1559.23 567.621C1558.52 567.336 1557.81 567.051 1557.08 566.758C1556.44 566.511 1555.8 566.264 1555.14 566.009C1553.64 564.976 1553.64 564.976 1552.91 562.926C1552.84 562.282 1552.78 561.638 1552.72 560.975C1553.64 559.974 1553.64 559.974 1556.22 559.662C1561.43 559.72 1566.23 562.072 1571.07 563.976C1572.91 564.647 1574.74 565.316 1576.58 565.976C1572.2 558.335 1567.14 551.275 1562.1 544.153C1561.37 543.116 1561.37 543.116 1560.63 542.058C1559.62 540.636 1558.59 539.229 1557.54 537.836C1557.04 537.148 1556.54 536.461 1556.02 535.752C1555.56 535.144 1555.1 534.535 1554.63 533.908C1553.38 531.469 1553.46 529.715 1553.64 526.965C1556.57 526.391 1558.52 526.554 1561.09 528.242C1568.31 534.26 1574.45 541.38 1580.25 548.971C1579.95 548.146 1579.64 547.321 1579.33 546.47C1578.26 542.382 1578.28 539.199 1578.41 534.967C1581.4 534.217 1581.4 534.217 1584.84 533.967C1588.33 536.863 1589.52 540.165 1590.97 544.595C1591.36 545.742 1591.74 546.89 1592.13 548.072C1592.45 549.029 1592.77 549.986 1593.1 550.972C1593.4 551.632 1593.7 552.292 1594.01 552.972C1594.62 551.982 1595.22 550.992 1595.85 549.971C1600.47 550.416 1602.62 552.686 1605.94 555.973C1605.7 549.515 1604.78 543.549 1603.13 537.343C1601.65 531.608 1600.89 526.895 1601.35 520.963C1602.27 519.963 1602.27 519.963 1604.85 519.587C1607.78 519.963 1607.78 519.963 1609.73 521.901C1613.71 528.999 1615.88 536.338 1617.58 544.407C1617.97 546.178 1618.35 547.948 1618.74 549.717C1618.91 550.488 1619.07 551.258 1619.24 552.052C1619.66 554.037 1619.66 554.037 1620.62 555.973C1620.96 546.57 1620.9 537.558 1616.95 528.965C1616.83 526.292 1616.91 523.641 1616.95 520.963C1619.07 520.633 1621.19 520.303 1623.38 519.963C1626.21 524.202 1627.76 527.768 1629 532.904C1629.28 534.068 1629.57 535.233 1629.87 536.432C1630.15 537.599 1630.43 538.766 1630.72 539.969C1631.32 542.306 1631.94 544.638 1632.55 546.971C1632.86 544.66 1633.16 542.349 1633.47 539.969C1632.56 539.308 1631.65 538.648 1630.72 537.968C1630.72 536.978 1630.72 535.987 1630.72 534.967C1631.93 534.967 1633.14 534.967 1634.39 534.967C1637.04 528.41 1637.25 522.25 1637.14 515.211C1637.02 507.227 1637.02 507.227 1638.06 504.958C1640.57 504.665 1640.57 504.665 1643.57 504.958C1645.62 506.908 1645.62 506.908 1647.52 509.647C1648.22 510.64 1648.91 511.633 1649.63 512.656C1650.36 513.755 1651.1 514.857 1651.82 515.961C1652.21 516.544 1652.6 517.126 1653 517.727C1660.08 528.397 1660.08 528.397 1660.08 530.966C1660.69 530.966 1661.29 530.966 1661.92 530.966C1662.29 529.914 1662.29 529.914 1662.66 528.84C1665.69 520.852 1665.69 520.852 1668.34 517.962C1670.01 517.962 1670.01 517.962 1672.01 518.962C1673.56 520.945 1675.09 522.947 1676.6 524.964C1678.57 526.337 1678.57 526.337 1680.27 526.965C1680.88 525.644 1681.48 524.324 1682.11 522.964C1683.02 522.964 1683.92 522.964 1684.86 522.964C1686.35 514.49 1686.35 514.49 1686.64 505.896C1686.69 501.957 1686.69 501.957 1687.92 500.222C1690 498.5 1691.49 498.732 1694.04 498.956C1695.96 502.391 1696.09 505.052 1696.05 509.038C1696.04 510.198 1696.04 511.359 1696.03 512.554C1696.02 513.761 1696 514.968 1695.99 516.211C1695.98 517.434 1695.97 518.656 1695.96 519.916C1695.94 522.932 1695.91 525.949 1695.87 528.965C1697.92 527.265 1699.97 525.555 1702.01 523.839C1702.58 523.364 1703.16 522.89 1703.75 522.401C1706.57 520.017 1709.04 517.697 1711.27 514.649C1713.31 511.96 1713.31 511.96 1715.89 511.085C1716.88 511.023 1716.88 511.023 1717.89 510.96C1718.8 512.61 1719.71 514.261 1720.65 515.961C1721.12 515.631 1721.59 515.301 1722.08 514.961C1728.53 512.079 1736.35 514.669 1742.67 516.962C1746.24 519.01 1749.49 521.399 1752.77 523.964C1753.89 524.781 1755.02 525.595 1756.15 526.402C1757.2 527.176 1757.2 527.176 1758.27 527.965C1757.37 525.108 1756.5 523.047 1754.72 520.713C1753 518.286 1752.17 516.577 1751.15 513.793C1749.21 508.953 1746.68 505.028 1743.7 500.895C1742.77 499.57 1741.83 498.245 1740.9 496.921C1739.44 494.865 1737.98 492.817 1736.5 490.783C1735.74 489.724 1735.74 489.724 1734.97 488.645C1734.51 488.009 1734.05 487.372 1733.57 486.717C1732.58 484.952 1732.58 484.952 1732.69 481.951C1732.96 481.291 1733.22 480.631 1733.49 479.951C1743 480.937 1748.55 489.228 1754.66 496.393C1755.13 496.941 1755.61 497.488 1756.09 498.052C1759.03 501.495 1761.48 504.98 1763.78 508.959C1763.58 508.307 1763.38 507.654 1763.17 506.982C1760.47 497.744 1760.47 497.744 1761.02 492.955C1762.86 490.954 1762.86 490.954 1765.73 490.829C1766.6 490.87 1767.47 490.912 1768.37 490.954C1769.82 494.046 1771.18 497.113 1772.38 500.332C1773.83 503.865 1775.51 506.942 1777.46 510.163C1778.46 511.96 1778.46 511.96 1779.38 514.961C1779.98 513.311 1780.59 511.66 1781.21 509.96C1784.73 510.507 1786.27 512.065 1788.55 514.961C1789.05 515.869 1789.54 516.777 1790.04 517.712C1790.46 518.455 1790.88 519.197 1791.31 519.963C1791.91 519.963 1792.52 519.963 1793.14 519.963C1792.68 511.312 1792.17 503.49 1789.01 495.455C1787.56 491.38 1787.01 487.203 1786.49 482.889C1786.4 482.216 1786.32 481.543 1786.23 480.85C1785.75 476.364 1785.83 472.363 1786.72 467.947C1788.61 466.509 1788.61 466.509 1790.39 465.947C1793.46 469.723 1795.22 473.521 1796.81 478.2C1797.28 479.536 1797.75 480.871 1798.23 482.205C1798.45 482.848 1798.68 483.49 1798.91 484.152C1800.01 487.196 1801.27 490.16 1802.54 493.123C1803.24 494.955 1803.24 494.955 1803.56 497.007C1804.36 499.644 1805.73 500.483 1807.82 501.957C1808 494.852 1807.95 488.781 1805.99 481.951C1805.79 479.228 1805.86 476.689 1805.99 473.949C1806.91 472.949 1806.91 472.949 1809.03 472.636C1811.49 472.949 1811.49 472.949 1813.5 474.637C1815.17 476.95 1815.17 476.95 1815.91 479.326C1817.53 483.226 1820.37 485.363 1823.42 487.953C1824.3 485.413 1824.48 484.32 1823.51 481.772C1822.85 480.613 1822.85 480.613 1822.18 479.431C1821.7 478.573 1821.23 477.715 1820.73 476.831C1820.22 475.942 1819.71 475.053 1819.18 474.137C1818.69 473.259 1818.2 472.382 1817.69 471.478C1815.47 467.544 1813.21 463.704 1810.69 459.988C1808.7 456.88 1808.14 455.628 1808.74 451.943C1809.66 450.942 1809.66 450.942 1811.72 450.567C1815.35 451.106 1816.47 452.973 1818.84 455.944C1819.26 456.471 1819.68 456.999 1820.11 457.542C1821.72 459.596 1823.23 461.52 1824.34 463.946C1825.06 463.76 1825.78 463.575 1826.52 463.383C1828.93 462.946 1828.93 462.946 1830.77 463.946C1829.66 456.818 1829.66 456.818 1827.38 450.067C1826.18 446.941 1826.18 446.941 1826.29 444.815C1826.56 444.197 1826.82 443.578 1827.09 442.94C1827.44 442.053 1827.78 441.166 1828.13 440.252C1829.85 437.938 1829.85 437.938 1833.23 437.126C1834.23 437.064 1835.24 437.002 1836.27 436.938C1839.11 440.759 1840.15 443.48 1840.74 448.379C1841.51 454.032 1843.47 457.121 1847.28 460.945C1847.33 460.023 1847.33 460.023 1847.39 459.081C1847.45 458.273 1847.51 457.464 1847.57 456.631C1847.62 455.831 1847.68 455.03 1847.73 454.205C1848.29 451.515 1848.85 450.477 1850.95 448.942C1852.96 449.254 1852.96 449.254 1854.62 449.942C1854.85 449.194 1855.07 448.446 1855.3 447.676C1855.61 446.691 1855.91 445.705 1856.23 444.69C1856.53 443.716 1856.83 442.741 1857.13 441.736C1858.39 438.718 1859.6 437.001 1861.96 434.938C1864.49 435.188 1864.49 435.188 1866.55 435.938C1867.32 439.957 1867.52 442.958 1866.55 446.941C1867.52 447.044 1868.48 447.147 1869.48 447.254C1872.89 447.924 1874.69 448.973 1877.56 450.942C1878.17 450.612 1878.78 450.282 1879.4 449.942C1881.54 449.902 1883.68 449.899 1885.82 449.942C1886.91 452.005 1886.91 452.005 1887.66 454.943C1887 457.492 1886.02 459.566 1884.91 461.946C1885.81 462.276 1886.72 462.606 1887.66 462.946C1887.66 464.596 1887.66 466.247 1887.66 467.947C1888.26 467.947 1888.87 467.947 1889.49 467.947C1889.72 467.37 1889.95 466.792 1890.18 466.197C1891.48 463.645 1893.08 461.966 1895 459.945C1895 522.297 1895 584.648 1895 647C1269.67 647 644.344 647 0.0661363 647C0.0661363 577.019 0.0661363 507.039 0.0661363 434.938C0.974603 435.598 1.88307 436.258 2.81907 436.938C3.12189 436.608 3.42471 436.278 3.73671 435.938C7.89812 435.705 7.89812 435.705 10.1602 436.938C6.85872 421.329 6.85872 421.329 0.0661363 407.93C-0.00017722 406.076 -0.0107734 404.22 0.00878359 402.365C0.0170639 401.353 0.0253442 400.341 0.0338754 399.298C0.0498445 398.124 0.0498445 398.124 0.0661363 396.926C3.50213 397.472 4.75826 398.794 6.84451 401.76C10.4327 407.034 12.9862 412.671 15.494 418.62C15.9311 419.627 16.3682 420.633 16.8185 421.67C18.8328 426.355 20.7445 430.963 22.0896 435.938C24.1309 430.443 25.414 425.344 26.219 419.495C28.5477 403.891 28.5477 403.891 31.266 400.928C32.795 400.887 34.3253 400.885 35.8542 400.928C36.6213 404.415 36.7856 407.195 36.3704 410.743C35.6457 418.137 35.7773 425.512 35.8542 432.937C36.1109 432.103 36.3676 431.268 36.6321 430.409C39.0236 423.091 41.4928 416.26 46.866 410.93C49.963 409.805 49.963 409.805 52.3718 409.93C52.6746 410.26 52.9775 410.59 53.2895 410.93C53.0891 416.935 51.6006 420.878 49.0167 426.126C46.8005 431.176 45.497 436.563 44.113 441.94C45.6917 440.219 46.4823 437.901 47.4968 435.75C49.9092 430.919 52.0684 427.345 56.0424 423.934C58.6806 423.559 58.6806 423.559 60.6306 423.934C61.4919 430.975 61.6474 437.841 61.5483 444.94C62.1539 445.271 62.7595 445.601 63.3835 445.941C63.4214 444.971 63.4592 444.001 63.4982 443.002C64.1798 437.896 66.5403 433.62 69.807 429.936C72.9041 429.373 72.9041 429.373 75.3129 429.936C76.2214 432.412 76.2214 432.412 77.1482 434.938C78.3406 433.731 78.3406 433.731 79.557 432.499C82.3342 429.987 84.4594 428.936 88.1599 428.936C89.8805 430.374 89.8805 430.374 90.9128 431.937C91.8781 431.163 91.8781 431.163 92.8628 430.374C96.0598 428.631 97.6101 428.989 101.007 429.936C101.31 430.926 101.613 431.917 101.925 432.937C100.147 435.625 100.147 435.625 98.254 437.938C100.071 438.599 101.888 439.259 103.76 439.939C104.214 442.415 104.214 442.415 104.678 444.94C101.114 448.589 98.5183 449.527 93.6658 449.942C93.0601 451.592 92.4545 453.243 91.8305 454.943C103.262 452.095 103.262 452.095 114.198 447.629C117.231 446.09 118.843 445.481 122.113 445.941C122.754 447.683 122.754 447.683 123.03 449.942C121.844 452.013 121.844 452.013 120.105 454.068C119.543 454.752 118.982 455.435 118.403 456.139C116.652 457.899 115.112 458.925 112.936 459.945C112.936 460.605 112.936 461.265 112.936 461.946C115.359 462.276 117.781 462.606 120.277 462.946C120.277 461.956 120.277 460.965 120.277 459.945C122.406 459.147 123.599 458.83 125.783 459.546C133.199 463.683 136.299 469.75 139.548 477.95C139.548 478.61 139.548 479.271 139.548 479.951C140.154 479.951 140.759 479.951 141.383 479.951C142.961 485.933 144.422 491.762 145.054 497.956C145.659 497.296 146.265 496.636 146.889 495.956C146.907 494.072 146.907 494.072 146.545 491.954C145.781 485.786 145.487 479.715 146.563 473.578C147.495 463.204 140.823 450.774 134.96 442.94C132.833 438.966 132.094 436.484 132.207 431.937C131.601 430.946 130.996 429.956 130.372 428.936C133.59 424.311 138.145 422.922 143.219 421.934C144.127 422.264 145.035 422.594 145.971 422.934C146.842 425.001 146.842 425.001 147.52 427.498C147.866 428.738 147.866 428.738 148.219 430.003C148.469 430.96 148.469 430.96 148.724 431.937C151.45 431.607 154.175 431.276 156.983 430.936C157.589 431.927 158.194 432.917 158.818 433.937C154.1 442.811 154.1 442.811 150.56 444.94C149.954 444.94 149.348 444.94 148.724 444.94C149.156 445.919 149.588 446.898 150.033 447.906C155.587 460.613 155.587 460.613 157.345 467.017C158.026 469.383 158.873 471.656 159.736 473.949C161.892 463.121 161.892 463.121 163.876 452.255C164.324 449.942 164.324 449.942 164.973 447.504C165.55 445.267 166.042 443.261 166.16 440.939C164.615 437.87 164.615 437.87 162.489 435.938C163.177 433.5 163.177 433.5 164.324 430.936C166.274 430.124 166.274 430.124 167.995 429.936C168.108 428.843 168.222 427.749 168.339 426.623C168.913 422.934 168.913 422.934 170.748 419.933C172.262 420.263 173.776 420.593 175.336 420.933C175.304 421.56 175.272 422.187 175.239 422.832C175.202 424.059 175.202 424.059 175.164 425.31C175.132 426.122 175.1 426.934 175.067 427.771C175.156 428.486 175.245 429.2 175.336 429.936C176.245 430.596 177.153 431.256 178.089 431.937C177.933 432.51 177.777 433.084 177.616 433.675C175.959 440.006 174.592 446.383 173.329 452.818C173.165 453.638 173 454.459 172.831 455.304C172.071 459.245 171.447 462.894 171.665 466.947C172.082 465.833 172.498 464.719 172.927 463.571C174.418 459.945 174.418 459.945 176.254 457.944C179.121 458.319 179.121 458.319 181.76 458.945C182.062 460.925 182.365 462.906 182.677 464.946C183.34 464.286 184.002 463.626 184.685 462.946C187.539 460.733 188.49 460.748 191.854 460.945C191.985 456.726 192.116 452.508 192.246 448.289C192.29 446.854 192.335 445.419 192.379 443.984C192.443 441.921 192.507 439.857 192.571 437.794C192.609 436.552 192.647 435.311 192.687 434.032C192.742 432 192.771 429.968 192.771 427.935C193.052 426.595 193.354 425.26 193.689 423.934C195.696 423.559 195.696 423.559 198.277 423.934C200.915 426.56 200.915 426.56 202.865 429.936C202.693 433.312 202.693 433.312 201.948 435.938C203.462 436.268 204.976 436.598 206.536 436.938C206.839 438.259 207.142 439.579 207.454 440.939C205.031 441.6 202.608 442.26 200.112 442.94C200.415 443.27 200.718 443.6 201.03 443.94C202.771 443.881 204.51 443.793 206.249 443.69C212.548 443.649 212.548 443.649 215.368 446.003C218.742 450.553 219.497 454.01 219.154 459.82C218.494 464.235 217.581 468.599 216.63 472.949C217.236 472.949 217.841 472.949 218.465 472.949C217.924 476.066 217.072 477.801 215.196 480.201C212.432 484.193 212.566 487.062 212.959 491.954C213.84 490.314 213.84 490.314 214.737 488.641C218.053 483.572 222.374 482.642 227.767 481.557C229.249 481.311 230.739 481.124 232.23 480.951C233.32 482.639 233.32 482.639 234.065 484.952C232.62 488.434 231.506 489.813 228.559 491.954C229.439 492.264 229.439 492.264 230.337 492.58C232.23 493.955 232.23 493.955 232.807 497.042C232.976 498.485 232.976 498.485 233.148 499.957C233.701 498.981 234.255 498.004 234.825 496.999C235.566 495.713 236.306 494.428 237.048 493.142C237.411 492.499 237.774 491.857 238.148 491.194C240.111 487.809 241.787 484.951 245.077 482.952C248.059 482.764 248.059 482.764 250.583 482.952C250.659 481.961 250.734 480.971 250.812 479.951C251.295 476.133 252.609 473.19 254.311 469.842C256.288 465.487 256.844 460.728 256.089 455.944C254.115 450.753 250.978 446.424 247.733 442.108C247.231 441.44 246.729 440.772 246.212 440.084C245.197 438.749 244.169 437.426 243.128 436.115C242.656 435.502 242.183 434.889 241.697 434.258C241.05 433.442 241.05 433.442 240.39 432.609C239.571 430.936 239.571 430.936 239.859 428.884C240.171 427.919 240.17 427.919 240.489 426.935C241.763 421.799 240.76 419.622 238.503 415.061C233.003 404.843 227.21 395.183 220.046 386.257C215.169 380.171 212.183 374.326 209.289 366.918C208.667 366.912 208.045 366.906 207.404 366.9C173.01 366.564 138.649 365.778 104.276 364.417C102.583 364.35 100.889 364.284 99.1955 364.218C95.1484 364.058 91.1014 363.895 87.0545 363.729C85.568 363.668 84.0816 363.607 82.5951 363.547C74.7487 363.229 66.9254 362.789 59.0947 362.145C54.0477 361.767 48.9968 361.592 43.941 361.416C41.7078 361.333 39.4746 361.249 37.2415 361.166C33.776 361.039 30.3105 360.914 26.8449 360.791C23.4626 360.669 20.0805 360.543 16.6984 360.416C15.6632 360.38 14.6279 360.345 13.5613 360.308C12.5927 360.271 11.6241 360.235 10.6262 360.197C9.78058 360.166 8.93496 360.136 8.0637 360.105C5.37966 359.901 2.7201 359.397 0.0661363 358.915C0.0661363 343.07 0.0661363 327.226 0.0661363 310.901C3.37944 310.84 6.69274 310.78 10.1064 310.717C13.4266 310.655 16.7467 310.592 20.0668 310.529C22.3202 310.486 24.5737 310.444 26.8272 310.404C41.8841 310.145 41.8841 310.145 56.9354 309.645C70.6949 309.065 84.4189 308.844 98.1888 308.863C101.176 308.865 104.162 308.863 107.149 308.858C108.148 308.856 109.146 308.855 110.174 308.853C112.211 308.849 114.249 308.846 116.286 308.842C121.444 308.834 126.602 308.841 131.761 308.876C163.442 309.387 163.442 309.387 193.892 300.956C197.787 299.339 201.774 298.08 205.769 296.791C208.99 295.684 211.874 294.255 214.909 292.646C220.504 289.937 225.229 288.925 231.312 289.895C231.918 290.225 232.524 290.555 233.148 290.895C235.09 290.834 235.09 290.834 237.22 290.52C237.938 290.43 238.656 290.34 239.395 290.247C241.562 289.928 241.562 289.928 244.159 288.895C248.515 288.492 251.163 288.462 254.942 290.895C259.669 293.746 264.587 293.692 269.853 292.896C271.512 292.169 271.512 292.169 273.204 291.428C277.197 289.76 280.934 289.254 285.177 288.945C285.91 288.883 286.642 288.821 287.397 288.756C289.711 288.562 292.027 288.384 294.343 288.207C295.906 288.077 297.47 287.946 299.033 287.814C311.201 286.808 311.201 286.808 315.736 286.894C316.019 285.656 316.303 284.418 316.596 283.143C318.591 276.457 322.75 271.287 326.747 265.888C325.858 265.908 324.968 265.929 324.052 265.95C321.241 265.888 321.241 265.888 320.324 264.887C319.684 261.087 319.584 257.671 320.324 253.884C322.68 250.819 325.465 248.939 328.583 246.882C329.529 246.078 330.475 245.273 331.45 244.444C334.664 242.54 336.907 242.567 340.512 242.881C340.815 244.531 341.118 246.182 341.43 247.882C342.049 247.859 342.669 247.836 343.308 247.812C344.536 247.785 344.536 247.785 345.788 247.757C347.002 247.723 347.002 247.723 348.24 247.687C350.74 247.894 352.095 248.615 354.277 249.883C356.111 249.923 357.948 249.927 359.782 249.883C360.388 250.213 360.994 250.543 361.618 250.883C362.191 253.947 362.191 253.947 362.535 256.885C363.141 256.225 363.747 255.565 364.371 254.885C370.55 253.971 370.55 253.971 373.332 256.158C374.37 257.242 375.401 258.334 376.425 259.433C378.952 261.581 381.496 261.834 384.598 262.387C386.394 262.887 386.394 262.887 388.287 265.013C388.713 265.941 388.713 265.941 389.147 266.888C389.791 266.249 390.434 265.609 391.097 264.95C398.674 259.547 409.095 261.862 417.452 263.68C419.769 264.221 421.89 264.728 424.017 265.888C435.907 267.899 448.118 268.431 459.003 262.262C462.168 259.411 464.745 256.224 467.39 252.81C469.157 250.671 470.045 249.968 472.663 249.68C480.27 249.535 487.582 250.656 495.102 251.81C501.755 252.8 508.144 253.264 514.864 252.884C514.836 251.963 514.807 251.043 514.778 250.094C514.893 245.796 515.823 243.984 518.535 240.88C521.11 240.121 523.293 240.171 525.876 240.88C527.119 242.193 528.342 243.528 529.546 244.882C533.002 246.025 535.986 246.144 539.469 245.132C541.498 244.024 541.498 244.024 542.738 242.318C544.229 240.88 544.229 240.88 547.326 240.63C550.584 240.268 550.584 240.268 551.928 238.337C552.682 237.075 553.431 235.809 554.172 234.539C555.799 232.01 557.055 231.427 559.829 230.877C563.623 231.039 567.23 231.63 570.898 232.69C576.625 233.089 580.901 228.997 585.179 225.251C588.974 221.945 592.043 220.331 596.882 219.499C602.357 218.55 602.357 218.55 606.858 215.248C609.381 212.872 609.381 212.872 612.192 212.372C614.887 212.872 614.887 212.872 617.296 214.498C618.015 214.952 618.735 215.405 619.476 215.873C620.707 215.225 621.93 214.554 623.146 213.872C630.408 213.872 634.444 217.278 639.524 222.676C641.05 224.266 642.448 225.679 644.252 226.876C647.5 226.36 649.638 224.946 652.511 223.25C658.667 220.376 666.047 220.852 672.308 223C674.942 224.196 677.502 225.457 680.04 226.876C679.926 225.484 679.926 225.484 679.811 224.063C680.04 220.875 680.04 220.875 681.624 219.151C682.657 218.519 682.657 218.519 683.711 217.874C684.361 217.462 685.012 217.051 685.682 216.627C686.693 216.037 686.693 216.037 687.725 215.435C690.277 213.935 692.632 212.389 694.952 210.496C697.475 208.871 697.475 208.871 700.113 209.121ZM694.722 227.877C695.973 229.917 695.973 229.917 697.475 231.878C698.081 231.878 698.687 231.878 699.311 231.878C699.311 231.218 699.311 230.557 699.311 229.877C699.916 229.547 700.522 229.217 701.146 228.877C699.026 228.547 696.906 228.217 694.722 227.877ZM713.075 242.881C715.204 246.361 716.988 247.177 720.416 248.883C720.416 246.902 720.416 244.922 720.416 242.881C717.994 242.881 715.571 242.881 713.075 242.881ZM341.43 259.886C345.042 261.199 347.05 260.129 350.606 258.886C346.993 257.573 344.986 258.643 341.43 259.886ZM368.959 271.89C368.959 272.55 368.959 273.21 368.959 273.89C369.565 273.56 370.17 273.23 370.794 272.89C370.188 272.56 369.583 272.23 368.959 271.89ZM359.782 272.89C360.388 274.21 360.994 275.531 361.618 276.891C361.315 275.571 361.012 274.25 360.7 272.89C360.397 272.89 360.094 272.89 359.782 272.89ZM18.419 352.913C18.419 353.243 18.419 353.574 18.419 353.914C26.2941 354.179 34.1693 354.44 42.0446 354.696C45.7041 354.815 49.3635 354.936 53.0229 355.06C69.9401 355.63 86.8319 356.077 103.76 355.914C102.851 353.604 101.943 351.293 101.007 348.912C73.4678 345.67 45.7658 349.234 18.419 352.913ZM1864.72 449.942C1864.72 451.923 1864.72 453.903 1864.72 455.944C1865.02 455.944 1865.32 455.944 1865.64 455.944C1865.64 453.963 1865.64 451.983 1865.64 449.942C1865.33 449.942 1865.03 449.942 1864.72 449.942ZM78.9835 453.943C78.0166 455.251 77.0853 456.59 76.1732 457.944C75.6705 458.687 75.1677 459.43 74.6498 460.195C74.0696 461.061 74.0696 461.062 73.4776 461.946C73.7804 462.606 74.0833 463.266 74.3953 463.946C78.2111 459.542 78.2111 459.542 79.9011 453.943C79.5983 453.943 79.2955 453.943 78.9835 453.943ZM1862.88 461.946C1862 468.321 1861.87 474.509 1861.96 480.951C1863.78 481.611 1865.6 482.271 1867.47 482.952C1868.09 480.703 1868.7 478.452 1869.31 476.2C1869.65 474.946 1869.99 473.693 1870.34 472.402C1871.29 468.895 1871.29 468.895 1871.14 464.946C1870.12 464.823 1869.1 464.699 1868.04 464.571C1864.72 463.946 1864.72 463.946 1862.88 461.946ZM122.113 464.946C123.03 466.947 123.03 466.947 123.03 466.947L122.113 464.946ZM191.854 465.947C190.004 470.167 189.639 474.158 189.445 478.763C189.409 479.456 189.374 480.149 189.337 480.863C189.251 482.559 189.175 484.256 189.101 485.953C192.888 479.759 194.052 474.339 193.689 466.947C193.083 466.617 192.478 466.287 191.854 465.947ZM123.03 466.947C122.936 467.731 122.841 468.515 122.744 469.323C122.113 471.948 122.113 471.948 119.36 473.949C119.663 474.279 119.965 474.609 120.277 474.949C120.42 476.29 120.507 477.638 120.568 478.986C120.606 479.795 120.645 480.604 120.684 481.438C120.72 482.288 120.756 483.138 120.794 484.015C120.833 484.869 120.873 485.723 120.914 486.603C121.011 488.72 121.104 490.837 121.195 492.955C121.731 492.637 122.267 492.32 122.819 491.993C125.75 490.505 128.965 489.954 132.207 489.954C132.074 481.418 129.049 475.024 124.866 467.947C124.26 467.617 123.654 467.287 123.03 466.947ZM202.865 468.948C201.538 473.493 200.747 478.176 201.03 482.952C206.673 475.752 206.673 475.752 209.289 466.947C205.66 466.599 205.66 466.599 202.865 468.948ZM435.008 478.31C431.752 480.266 428.581 481.317 425.003 482.334C422.923 482.914 422.923 482.914 420.634 484.577C417.849 486.382 415.28 486.612 412.088 486.953C412.088 487.283 412.088 487.613 412.088 487.953C415.122 488.974 418.164 489.966 421.207 490.954C422.482 491.383 422.482 491.383 423.783 491.822C433.97 495.095 445.5 495.057 455.296 489.958C460.053 485.994 463.862 478.899 466.229 472.949C466.229 471.958 466.229 470.968 466.229 469.948C454.586 469.708 445.047 471.847 435.008 478.31ZM1850.95 470.948C1850.95 472.599 1850.95 474.249 1850.95 475.95C1851.26 475.95 1851.56 475.95 1851.87 475.95C1851.87 474.299 1851.87 472.649 1851.87 470.948C1851.57 470.948 1851.27 470.948 1850.95 470.948ZM109.266 472.949C109.266 473.609 109.266 474.269 109.266 474.949C110.174 474.619 111.083 474.289 112.019 473.949C111.11 473.619 110.202 473.289 109.266 472.949ZM1883.07 473.949C1883.99 475.95 1883.99 475.95 1883.99 475.95L1883.07 473.949ZM686.464 475.95C684.67 476.592 684.67 476.592 682.682 477.688C681.907 478.092 681.133 478.495 680.335 478.911C679.499 479.357 678.664 479.804 677.803 480.263C676.516 480.942 676.516 480.942 675.204 481.634C663.784 487.697 652.584 494.2 641.499 500.957C647.203 505.102 655.199 502.763 661.687 501.707C662.456 501.598 663.225 501.488 664.017 501.375C670.435 500.346 676.532 498.7 681.287 493.662C683.08 490.439 684.484 487.126 685.775 483.639C686.021 482.994 686.267 482.349 686.521 481.684C687.12 480.109 687.71 478.53 688.299 476.95C687.693 476.62 687.087 476.29 686.464 475.95ZM1882.15 475.95C1883.07 477.95 1883.07 477.95 1883.07 477.95L1882.15 475.95ZM1892.25 475.95C1893.16 477.95 1893.16 477.95 1893.16 477.95L1892.25 475.95ZM98.254 477.95C98.254 479.271 98.254 480.591 98.254 481.951C97.3455 482.447 97.3455 482.447 96.4187 482.952C98.2356 483.612 100.053 484.272 101.925 484.952C100.939 482.036 100.293 480.173 98.254 477.95ZM1850.04 477.95C1849.43 479.271 1848.82 480.591 1848.2 481.951C1849.11 481.951 1850.02 481.951 1850.95 481.951C1850.65 480.631 1850.35 479.311 1850.04 477.95ZM1881.24 477.95C1882.15 480.951 1882.15 480.951 1882.15 480.951L1881.24 477.95ZM1891.33 479.951C1892.25 483.952 1892.25 483.952 1892.25 483.952L1891.33 479.951ZM1880.32 480.951C1878.29 482.738 1878.29 482.738 1878.3 485.116C1878.32 485.929 1878.35 486.741 1878.37 487.578C1878.38 488.396 1878.4 489.213 1878.42 490.055C1878.44 490.682 1878.46 491.309 1878.48 491.954C1880.26 489.053 1880.59 488.056 1880.89 484.765C1881 483.506 1881.12 482.248 1881.24 480.951C1880.93 480.951 1880.63 480.951 1880.32 480.951ZM1850.95 481.951C1851.87 484.952 1851.87 484.952 1851.87 484.952L1850.95 481.951ZM188.183 485.953C189.101 487.953 189.101 487.953 189.101 487.953L188.183 485.953ZM171.665 487.953C171.665 492.244 171.665 496.536 171.665 500.957C171.968 500.957 172.271 500.957 172.583 500.957C172.583 496.666 172.583 492.374 172.583 487.953C172.28 487.953 171.977 487.953 171.665 487.953ZM187.265 488.953C188.183 490.954 188.183 490.954 188.183 490.954L187.265 488.953ZM273.524 492.955C270.725 499.418 268.223 505.854 266.176 512.648C265.265 514.961 265.265 514.961 263.934 516.339C262.284 518.223 261.682 519.795 260.87 522.237C260.455 523.475 260.455 523.475 260.032 524.737C259.753 525.596 259.473 526.455 259.186 527.34C258.899 528.191 258.613 529.042 258.318 529.919C256.989 533.927 255.875 537.767 255.171 541.969C258.43 542.955 261.701 543.874 264.978 544.782C265.903 545.063 266.827 545.343 267.78 545.632C270.362 546.329 272.699 546.897 275.359 546.971C278.236 544.894 278.236 544.894 279.947 541.969C282.877 539.814 285.815 538.307 289.124 536.968C287.947 529.91 285.891 523.412 283.331 516.837C280.856 510.405 278.52 503.947 276.316 497.397C275.476 494.835 275.476 494.835 273.524 492.955ZM1818.84 495.956C1819.44 500.907 1820.05 505.858 1820.67 510.96C1822.86 507.384 1823.36 505.246 1823.42 500.957C1821.91 499.307 1820.4 497.656 1818.84 495.956ZM195.524 497.956C196.442 500.957 196.442 500.957 196.442 500.957L195.524 497.956ZM194.607 505.958C195.524 507.959 195.524 507.959 195.524 507.959L194.607 505.958ZM1887.66 509.96C1888.58 512.961 1888.58 512.961 1888.58 512.961L1887.66 509.96ZM1850.95 511.96C1851.87 514.961 1851.87 514.961 1851.87 514.961L1850.95 511.96ZM1806.91 515.961C1807.82 517.962 1807.82 517.962 1807.82 517.962L1806.91 515.961ZM1807.82 517.962C1808.74 521.963 1808.74 521.963 1808.74 521.963L1807.82 517.962ZM195.524 518.962C196.442 522.963 196.442 522.964 196.442 522.964L195.524 518.962ZM1719.73 519.963C1717.81 522.059 1717.82 525.968 1717.32 528.84C1717.19 529.574 1717.05 530.308 1716.91 531.064C1716.32 534.483 1715.95 536.615 1716.98 539.969C1717.91 539.071 1717.91 539.071 1718.87 538.155C1723.73 534.209 1728.42 532.633 1734.41 531.966C1733.84 531.677 1733.28 531.388 1732.69 531.091C1730.74 529.966 1730.74 529.966 1728.91 527.965C1727.7 527.965 1726.48 527.965 1725.24 527.965C1725.24 526.975 1725.24 525.984 1725.24 524.964C1726.14 524.304 1727.05 523.644 1727.99 522.964C1726.8 522.84 1725.6 522.716 1724.38 522.588C1722.34 522.377 1722.34 522.377 1720.65 521.963C1720.34 521.303 1720.04 520.643 1719.73 519.963ZM1872.98 520.963C1873.89 524.964 1873.89 524.964 1873.89 524.964L1872.98 520.963ZM1731.66 524.964C1731.36 525.624 1731.05 526.284 1730.74 526.965C1731.95 526.965 1733.16 526.965 1734.41 526.965C1734.41 528.285 1734.41 529.605 1734.41 530.966C1737.14 530.966 1739.86 530.966 1742.67 530.966C1742.97 530.306 1743.28 529.645 1743.59 528.965C1742.12 528.292 1740.65 527.627 1739.17 526.965C1738.35 526.593 1737.53 526.222 1736.69 525.839C1734.38 524.798 1734.38 524.798 1731.66 524.964ZM468.337 530.759C466.546 533.409 465.013 536.134 463.476 538.968C463.079 539.677 462.683 540.385 462.274 541.115C460.95 543.491 459.657 545.883 458.372 548.283C457.73 549.449 457.73 549.449 457.075 550.638C454.729 554.963 454.729 554.963 454.751 559.814C456.195 562.068 457.5 563.583 459.519 565.226C460.109 565.726 460.699 566.227 461.307 566.742C464.125 568.346 466.759 568.629 469.9 568.977C474.398 559.772 478.322 550.426 481.829 540.719C482.376 539.219 482.376 539.219 482.935 537.688C483.27 536.744 483.605 535.799 483.951 534.826C484.4 533.565 484.4 533.565 484.858 532.278C485.677 529.73 485.677 529.73 485.5 525.964C479.137 525.531 472.994 525.415 468.337 530.759ZM712.272 533.154C707.614 535.536 702.891 537.561 698.052 539.464C692.359 543.015 690.429 550.522 688.069 556.848C687.736 557.728 687.402 558.607 687.059 559.513C686.243 561.665 685.433 563.82 684.628 565.976C700.546 566.18 716.439 565.559 732.346 564.976C730.737 560.779 729.189 556.792 726.826 553.027C724.393 548.945 723.036 544.669 721.563 540.094C721.274 539.214 720.984 538.335 720.685 537.429C719.977 535.277 719.276 533.123 718.581 530.966C716.093 530.966 714.525 531.997 712.272 533.154ZM233.148 532.966C234.065 534.967 234.065 534.967 234.065 534.967L233.148 532.966ZM1869.31 532.966C1870.22 535.967 1870.22 535.967 1870.22 535.967L1869.31 532.966ZM232.23 534.967C233.148 536.968 233.148 536.968 233.148 536.968L232.23 534.967ZM1669.26 536.968C1668.46 539.963 1668.24 542.605 1668.28 545.72C1668.29 546.52 1668.3 547.319 1668.31 548.143C1668.32 548.746 1668.33 549.35 1668.34 549.971C1668.95 549.641 1669.55 549.311 1670.18 548.971C1670.18 545.01 1670.18 541.049 1670.18 536.968C1669.87 536.968 1669.57 536.968 1669.26 536.968ZM1741.98 541.531C1741.3 542.336 1740.62 543.141 1739.92 543.97C1737.34 544.782 1737.34 544.782 1735.33 544.97C1736.24 545.465 1736.24 545.465 1737.17 545.97C1736.86 547.951 1736.56 549.931 1736.25 551.972C1736.89 551.9 1737.54 551.828 1738.2 551.753C1745.52 551.003 1752.76 550.865 1760.11 550.972C1760.11 552.622 1760.11 554.273 1760.11 555.973C1756.78 557.954 1753.44 559.934 1750.01 561.975C1753.67 563.303 1755.93 561.974 1759.36 560.537C1759.96 560.294 1760.56 560.051 1761.18 559.801C1762.66 559.2 1764.14 558.588 1765.61 557.974C1765.61 550.823 1762.15 544.894 1757.64 539.843C1753.07 535.052 1746.38 537.061 1741.98 541.531ZM506.605 538.968C506.435 539.486 506.264 540.004 506.089 540.538C502.898 550.195 499.673 559.718 495.594 568.977C498.805 569.006 502.017 569.024 505.229 569.04C506.13 569.048 507.032 569.056 507.96 569.065C513.108 569.084 518.031 568.816 523.123 567.977C521.135 563.101 519.006 559.24 515.839 555.16C512.035 550.177 509.7 544.97 507.523 538.968C507.22 538.968 506.917 538.968 506.605 538.968ZM1696.79 538.968C1692.18 543.661 1692 549.483 1691.28 555.973C1693.53 553.527 1694.35 551.217 1695.58 548.033C1696.21 546.442 1696.21 546.442 1696.86 544.818C1698 541.941 1698 541.941 1696.79 538.968ZM317.571 554.973C317.571 555.303 317.571 555.633 317.571 555.973C322.267 556.82 326.964 557.656 331.663 558.482C333.254 558.764 334.845 559.048 336.435 559.335C346.674 561.181 356.747 562.526 367.124 562.975C366.939 562.218 366.754 561.46 366.564 560.679C366.123 558.872 365.682 557.065 365.242 555.258C364.954 554.504 364.667 553.75 364.371 552.972C359.104 551.059 353.207 551.731 347.681 551.722C347.016 551.72 346.352 551.717 345.667 551.715C336.057 551.702 326.888 552.167 317.571 554.973ZM388.229 555.973C388.835 558.944 389.441 561.915 390.065 564.976C394.209 565.409 398.353 565.836 402.499 566.258C403.905 566.402 405.311 566.547 406.717 566.695C414.334 567.491 421.86 568.176 429.523 567.977C417.895 558.249 402.594 555.775 388.229 555.973ZM1642.65 556.974C1642.65 560.935 1642.65 564.896 1642.65 568.977C1642.95 568.977 1643.25 568.977 1643.57 568.977C1643.77 567.353 1643.96 565.727 1644.14 564.101C1644.25 563.195 1644.35 562.29 1644.46 561.358C1644.47 560.571 1644.48 559.784 1644.48 558.974C1643.88 558.314 1643.27 557.654 1642.65 556.974ZM1690.37 556.974C1688.66 560.109 1688.35 562.35 1688.53 565.976C1690.48 562.788 1690.83 560.709 1691.28 556.974C1690.98 556.974 1690.68 556.974 1690.37 556.974ZM1701.38 564.976C1701.07 566.626 1700.77 568.277 1700.46 569.977C1701.07 569.977 1701.67 569.977 1702.29 569.977C1702.29 568.327 1702.29 566.676 1702.29 564.976C1701.99 564.976 1701.69 564.976 1701.38 564.976ZM1670.18 568.977C1671.1 572.978 1671.09 572.978 1671.09 572.978L1670.18 568.977ZM566.252 569.977C565.949 570.968 565.647 571.958 565.335 572.978C585.775 572.483 585.775 572.483 606.629 571.978C606.629 571.318 606.629 570.658 606.629 569.977C593.304 569.977 579.98 569.977 566.252 569.977ZM1841.78 573.979C1841.49 574.559 1860.3 576.402 1860 577C1856.37 583.622 1833.28 585.442 1827.09 588.983C1826.19 589.643 1838.44 564.82 1837.5 565.5C1838.15 565.924 1857.83 583.063 1858.5 583.5C1863.48 586.824 1859.14 581.7 1863 586.5C1864.79 588.256 1844.57 588.968 1847 588.983C1849.43 587.013 1849.11 590.219 1851.5 587.5C1855.43 583.342 1851.43 586.08 1856.5 583.785C1856.5 583.125 1861.96 590.663 1861.96 589.983C1861.42 589.68 1845.09 601.611 1844.53 601.299C1840.12 598.75 1852.49 584.067 1849.12 579.98C1845.92 576.177 1845.92 576.177 1841.78 573.979Z" fill="#010101"/>
</svg>
